<svg width="82" height="33" viewBox="0 0 82 33" fill="none" xmlns="http://www.w3.org/2000/svg">
<g clip-path="url(#clip0_3323_5610)">
<path d="M69.5534 8.4032H69.4112C66.2926 8.42232 63.3088 9.69684 61.1136 11.9474C58.9185 14.198 57.6911 17.241 57.7005 20.4094C57.7099 23.5779 58.9553 26.6133 61.1638 28.8503C63.3723 31.0874 66.3637 32.3436 69.4823 32.3436C72.6008 32.3436 75.5922 31.0874 77.8007 28.8503C80.0092 26.6133 81.2546 23.5779 81.264 20.4094C81.2734 17.241 80.046 14.198 77.8509 11.9474C75.6557 9.69684 72.6719 8.42232 69.5534 8.4032ZM69.6134 27.1614C68.7211 27.1614 67.8376 26.9828 67.0132 26.6359C66.1888 26.2889 65.4397 25.7804 64.8088 25.1394C64.1778 24.4983 63.6773 23.7373 63.3359 22.8997C62.9944 22.0622 62.8186 21.1645 62.8186 20.2579C62.8186 19.3513 62.9944 18.4536 63.3359 17.6161C63.6773 16.7785 64.1778 16.0175 64.8088 15.3764C65.4397 14.7354 66.1888 14.2269 67.0132 13.8799C67.8376 13.533 68.7211 13.3544 69.6134 13.3544C69.7335 13.3544 69.8568 13.3544 69.98 13.3544C71.69 13.4488 73.3018 14.1959 74.4926 15.4463C75.6834 16.6966 76.3653 18.3579 76.4019 20.0974C76.4051 20.1508 76.4051 20.2044 76.4019 20.2579C76.4019 22.0877 75.6869 23.8427 74.414 25.1371C73.1411 26.4316 71.4144 27.1597 69.6134 27.1614Z" fill="#6A5BFF"/>
<path d="M25.4 8.53809H29.243C29.647 8.53809 30.0345 8.70114 30.3201 8.99139C30.6058 9.28163 30.7663 9.67528 30.7663 10.0857V32.1865H30.1342C28.8769 32.1865 27.6712 31.6791 26.7821 30.7758C25.8931 29.8726 25.3937 28.6475 25.3937 27.3701V8.53809H25.4Z" fill="#6A5BFF"/>
<path d="M28.0831 7.09959C29.9612 7.09959 31.4837 5.55276 31.4837 3.64464C31.4837 1.73653 29.9612 0.189697 28.0831 0.189697C26.2051 0.189697 24.6826 1.73653 24.6826 3.64464C24.6826 5.55276 26.2051 7.09959 28.0831 7.09959Z" fill="#6A5BFF"/>
<path d="M11.9716 8.40001C9.57921 8.3946 7.24358 9.14036 5.28431 10.5353V2.8965V2.75843C5.28348 2.42405 5.21783 2.09311 5.09112 1.78451C4.96441 1.4759 4.77911 1.19568 4.5458 0.959832C4.31249 0.723986 4.03575 0.537138 3.73137 0.409956C3.42699 0.282774 3.10093 0.217749 2.77182 0.218594C2.72875 0.213919 2.68531 0.213919 2.64225 0.218594C2.02008 0.245326 1.43041 0.508209 0.989786 0.955289C0.54916 1.40237 0.289633 2.00112 0.262495 2.6332C0.25971 2.6749 0.25971 2.71673 0.262495 2.75843V10.7857V20.2419C0.262495 20.3414 0.262495 20.4409 0.262495 20.5437C0.275665 21.1655 0.339085 21.7851 0.452117 22.3964C0.848638 24.6186 1.8604 26.68 3.36881 28.3389C4.87723 29.9979 6.8198 31.1856 8.96887 31.7629C11.1179 32.3402 13.3844 32.2832 15.5027 31.5985C17.621 30.9139 19.5034 29.6299 20.9292 27.8972C22.3549 26.1645 23.265 24.0548 23.5528 21.8153C23.8406 19.5758 23.4942 17.2994 22.5541 15.2529C21.614 13.2063 20.1192 11.4744 18.2449 10.2601C16.3707 9.04579 14.1945 8.39945 11.9716 8.3968V8.40001ZM12.0949 27.1614C11.2026 27.1614 10.319 26.9828 9.49463 26.6359C8.67025 26.289 7.9212 25.7805 7.29025 25.1394C6.6593 24.4984 6.1588 23.7373 5.81733 22.8998C5.47586 22.0622 5.30011 21.1645 5.30011 20.2579C5.30011 19.3513 5.47586 18.4536 5.81733 17.6161C6.1588 16.7785 6.6593 16.0175 7.29025 15.3764C7.9212 14.7354 8.67025 14.2269 9.49463 13.8799C10.319 13.533 11.2026 13.3545 12.0949 13.3545C12.215 13.3545 12.3382 13.3545 12.4615 13.3545C14.1714 13.4488 15.7832 14.1959 16.974 15.4463C18.1649 16.6966 18.8468 18.3579 18.8833 20.0974C18.8865 20.1508 18.8865 20.2045 18.8833 20.2579C18.8833 22.0877 18.1683 23.8427 16.8954 25.1371C15.6225 26.4316 13.8959 27.1597 12.0949 27.1614Z" fill="#6A5BFF"/>
<path d="M56.1756 19.5772V29.4604C56.1756 30.1834 55.8929 30.8767 55.3897 31.388C54.8865 31.8992 54.204 32.1864 53.4924 32.1864C52.7808 32.1864 52.0983 31.8992 51.5952 31.388C51.092 30.8767 50.8093 30.1834 50.8093 29.4604V20.3703C50.8093 20.2611 50.8093 20.1541 50.8093 20.0492C50.7197 18.3952 49.9989 16.8419 48.8 15.7193C47.6012 14.5967 46.0187 13.9933 44.3889 14.0372C42.7591 14.081 41.2104 14.7688 40.0718 15.9544C38.9331 17.14 38.2943 18.7299 38.2911 20.3863V29.4604C38.2911 30.1834 38.0084 30.8767 37.5052 31.388C37.002 31.8992 36.3196 32.1864 35.6079 32.1864C34.8963 32.1864 34.2139 31.8992 33.7107 31.388C33.2075 30.8767 32.9248 30.1834 32.9248 29.4604V8.55408H36.5655C36.792 8.55366 37.0163 8.59861 37.2256 8.68637C37.435 8.77412 37.6252 8.90296 37.7855 9.0655C37.9458 9.22804 38.0729 9.42109 38.1597 9.63361C38.2464 9.84614 38.2911 10.074 38.2911 10.304V10.3747C40.1125 9.20913 42.216 8.57897 44.3685 8.55408H44.5075C47.4647 8.55112 50.3132 9.68663 52.4793 11.732C54.6455 13.7773 55.9685 16.5805 56.1819 19.5772H56.1756Z" fill="#6A5BFF"/>
</g>
<defs>
<clipPath id="clip0_3323_5610">
<rect width="81" height="32" fill="white" transform="translate(0.262482 0.189697)"/>
</clipPath>
</defs>
</svg>
