<svg width="23" height="25" viewBox="0 0 23 25" fill="none" xmlns="http://www.w3.org/2000/svg">
<line x1="1" y1="23.5" x2="22" y2="23.5" stroke="white" stroke-width="2" stroke-linecap="round"/>
<path d="M13 1.5C13 0.947715 12.5523 0.5 12 0.5C11.4477 0.5 11 0.947715 11 1.5L13 1.5ZM11.2929 19.2071C11.6834 19.5976 12.3166 19.5976 12.7071 19.2071L19.0711 12.8431C19.4616 12.4526 19.4616 11.8195 19.0711 11.4289C18.6805 11.0384 18.0474 11.0384 17.6569 11.4289L12 17.0858L6.34315 11.4289C5.95262 11.0384 5.31946 11.0384 4.92893 11.4289C4.53841 11.8195 4.53841 12.4526 4.92893 12.8431L11.2929 19.2071ZM11 1.5L11 18.5L13 18.5L13 1.5L11 1.5Z" fill="white"/>
</svg>
