<svg width="100" height="101" viewBox="0 0 100 101" fill="none" xmlns="http://www.w3.org/2000/svg">
<path d="M42.6875 33.9509V22.8728C42.6854 21.4756 42.9594 20.0918 43.4936 18.8007C44.0278 17.5097 44.8117 16.3369 45.8004 15.3497C46.7891 14.3624 47.9631 13.5802 49.2549 13.0479C50.5467 12.5156 51.9309 12.2437 53.3281 12.2478H72.9375C74.3347 12.2437 75.7189 12.5156 77.0107 13.0479C78.3026 13.5802 79.4765 14.3624 80.4652 15.3497C81.4539 16.3369 82.2379 17.5097 82.7721 18.8007C83.3063 20.0918 83.5802 21.4756 83.5781 22.8728V29.8103C83.5802 31.2075 83.3063 32.5913 82.7721 33.8824C82.2379 35.1734 81.4539 36.3462 80.4652 37.3334C79.4765 38.3207 78.3026 39.1029 77.0107 39.6352C75.7189 40.1675 74.3347 40.4394 72.9375 40.4353H62L51.9219 43.5603L42.6875 33.9509Z" fill="#4BBFEB"/>
<path d="M42.6875 28.2322V33.9509L51.9063 43.5134L61.9844 40.3884H63.1406V39.7322C63.1365 38.2166 62.8337 36.7166 62.2494 35.3181C61.6652 33.9196 60.8109 32.65 59.7356 31.582C58.6603 30.5139 57.3849 29.6683 55.9825 29.0935C54.5801 28.5187 53.0781 28.226 51.5625 28.2322H42.6875ZM66.5156 12.2478C67.9128 12.2437 69.2971 12.5156 70.5889 13.0479C71.8807 13.5802 73.0546 14.3624 74.0433 15.3497C75.032 16.3369 75.816 17.5097 76.3502 18.8007C76.8844 20.0918 77.1583 21.4756 77.1563 22.8728V29.7947C77.1604 31.1932 76.888 32.5787 76.3547 33.8715C75.8214 35.1644 75.0378 36.339 74.0489 37.3279C73.06 38.3168 71.8853 39.1005 70.5925 39.6337C69.2997 40.167 67.9141 40.4394 66.5156 40.4353H72.9375C74.336 40.4394 75.7215 40.167 77.0144 39.6337C78.3072 39.1005 79.4819 38.3168 80.4708 37.3279C81.4597 36.339 82.2433 35.1644 82.7766 33.8715C83.3098 32.5787 83.5823 31.1932 83.5781 29.7947V22.8728C83.5802 21.4756 83.3063 20.0918 82.7721 18.8007C82.2379 17.5097 81.4539 16.3369 80.4652 15.3497C79.4765 14.3624 78.3026 13.5802 77.0107 13.0479C75.7189 12.5156 74.3347 12.2437 72.9375 12.2478H66.5156Z" fill="#0ACFFB"/>
<path d="M36.8594 71.0291H20.9063C19.3908 71.0332 17.8895 70.7377 16.4886 70.1597C15.0877 69.5816 13.8148 68.7324 12.7432 67.6608C11.6716 66.5892 10.8224 65.3164 10.2444 63.9155C9.66633 62.5146 9.37088 61.0133 9.375 59.4978V45.4353C9.37088 43.9198 9.66633 42.4185 10.2444 41.0176C10.8224 39.6167 11.6716 38.3439 12.7432 37.2723C13.8148 36.2007 15.0877 35.3515 16.4886 34.7734C17.8895 34.1954 19.3908 33.8999 20.9063 33.9041H51.5625C53.0787 33.8999 54.5808 34.1953 55.9826 34.7731C57.3843 35.351 58.6582 36.2 59.731 37.2713C60.8039 38.3427 61.6546 39.6154 62.2343 41.0164C62.8141 42.4174 63.1114 43.9191 63.1094 45.4353V51.4041L36.8594 71.0291Z" fill="#F8B84E"/>
<path d="M46.5156 33.9509C48.0311 33.9468 49.5324 34.2423 50.9333 34.8203C52.3342 35.3983 53.607 36.2476 54.6786 37.3192C55.7502 38.3908 56.5995 39.6636 57.1775 41.0645C57.7556 42.4654 58.051 43.9667 58.0469 45.4822V51.4509H50.5C50.3292 50.3946 49.7837 49.4351 48.9634 48.748C48.1431 48.0609 47.1028 47.6921 46.0329 47.7092C44.963 47.7263 43.935 48.128 43.137 48.8409C42.3391 49.5539 41.8245 50.5303 41.6875 51.5916C40.0814 51.8147 38.5267 52.3171 37.0938 53.0759C37.1558 52.7884 37.1872 52.4951 37.1875 52.2009C37.1937 51.3158 36.9369 50.4488 36.4496 49.7098C35.9624 48.9708 35.2666 48.3932 34.4506 48.0501C33.6346 47.7071 32.7352 47.6141 31.8663 47.783C30.9974 47.9519 30.1982 48.375 29.5701 48.9987C28.942 49.6224 28.5133 50.4186 28.3383 51.2863C28.1633 52.154 28.25 53.0541 28.5873 53.8725C28.9246 54.6909 29.4973 55.3907 30.2328 55.8831C30.9684 56.3755 31.8336 56.6384 32.7188 56.6384C30.7091 59.1252 29.6069 62.2225 29.5938 65.4197V70.9978H36.7813L63.1406 51.4509V45.4822C63.1427 43.9633 62.8443 42.4591 62.2626 41.0561C61.6809 39.653 60.8274 38.3789 59.7513 37.3071C58.6751 36.2353 57.3975 35.387 55.9922 34.811C54.5868 34.235 53.0813 33.9427 51.5625 33.9509H46.5156ZM19.3594 47.7322C18.4755 47.7322 17.6116 47.9943 16.8767 48.4853C16.1418 48.9763 15.569 49.6743 15.2308 50.4908C14.8926 51.3074 14.8041 52.2059 14.9765 53.0727C15.1489 53.9396 15.5745 54.7359 16.1995 55.3608C16.8245 55.9858 17.6207 56.4114 18.4876 56.5838C19.3544 56.7562 20.2529 56.6677 21.0695 56.3295C21.8861 55.9913 22.584 55.4185 23.075 54.6836C23.566 53.9488 23.8281 53.0848 23.8281 52.2009C23.8281 51.0157 23.3573 49.8791 22.5193 49.041C21.6812 48.203 20.5446 47.7322 19.3594 47.7322Z" fill="#FCD402"/>
<path d="M54.0313 51.4509C53.8541 50.4106 53.3146 49.4665 52.5081 48.7859C51.7016 48.1052 50.6803 47.732 49.625 47.7322C48.4398 47.7322 47.3032 48.203 46.4651 49.041C45.6271 49.8791 45.1563 51.0157 45.1562 52.2009C45.1485 52.3467 45.1485 52.4927 45.1562 52.6384L54.0313 51.4509ZM36.25 47.7322C35.3662 47.7322 34.5022 47.9943 33.7673 48.4853C33.0324 48.9763 32.4596 49.6743 32.1214 50.4908C31.7832 51.3074 31.6947 52.2059 31.8671 53.0727C32.0395 53.9396 32.4652 54.7358 33.0901 55.3608C33.7151 55.9858 34.5113 56.4114 35.3782 56.5838C36.245 56.7562 37.1436 56.6677 37.9601 56.3295C38.7767 55.9913 39.4746 55.4185 39.9656 54.6836C40.4567 53.9488 40.7188 53.0848 40.7188 52.2009C40.7188 51.0157 40.2479 49.8791 39.4099 49.041C38.5718 48.203 37.4352 47.7322 36.25 47.7322ZM22.8906 47.7322C22.0068 47.7322 21.1428 47.9943 20.4079 48.4853C19.673 48.9763 19.1003 49.6743 18.762 50.4908C18.4238 51.3074 18.3353 52.2059 18.5077 53.0727C18.6802 53.9396 19.1058 54.7358 19.7307 55.3608C20.3557 55.9858 21.152 56.4114 22.0188 56.5838C22.8857 56.7562 23.7842 56.6677 24.6007 56.3295C25.4173 55.9913 26.1152 55.4185 26.6063 54.6836C27.0973 53.9488 27.3594 53.0848 27.3594 52.2009C27.3594 51.0157 26.8886 49.8791 26.0505 49.041C25.2125 48.203 24.0758 47.7322 22.8906 47.7322Z" fill="#FD4755"/>
<path d="M40.625 51.7634C37.9083 52.3578 35.4288 53.7444 33.5 55.7478C34.2904 56.3455 35.2593 56.6592 36.25 56.6384C37.4352 56.6384 38.5718 56.1676 39.4099 55.3296C40.2479 54.4915 40.7187 53.3549 40.7187 52.1697C40.7187 52.0291 40.7187 51.8884 40.7187 51.7322L40.625 51.7634ZM45.2188 51.4509C45.1955 51.7004 45.1955 51.9515 45.2188 52.2009C45.211 52.3467 45.211 52.4927 45.2188 52.6384L54 51.4509H45.2188Z" fill="#FC636E"/>
<path d="M76.6406 51.4509H50.8594C47.1298 51.4509 43.5529 52.9325 40.9157 55.5697C38.2785 58.207 36.7969 61.7838 36.7969 65.5134V84.8415C36.7965 85.3379 36.8963 85.8291 37.0904 86.2859C37.2844 86.7428 37.5687 87.1557 37.9262 87.5C38.2836 87.8443 38.7069 88.1129 39.1706 88.2898C39.6344 88.4666 40.129 88.548 40.625 88.529H76.6406C78.4848 88.5435 80.3135 88.1922 82.0211 87.4956C83.7287 86.7989 85.2812 85.7706 86.5889 84.4701C87.8966 83.1697 88.9335 81.623 89.6397 79.9193C90.3459 78.2156 90.7073 76.3889 90.7031 74.5447V65.4509C90.7073 63.606 90.3459 61.7785 89.6399 60.074C88.9339 58.3694 87.8973 56.8217 86.5898 55.52C85.2823 54.2183 83.7299 53.1886 82.0223 52.4901C80.3146 51.7917 78.4855 51.4385 76.6406 51.4509Z" fill="#F5F9F9"/>
<path d="M55.5469 61.7478C54.4233 61.7576 53.3277 62.099 52.3975 62.7293C51.4673 63.3595 50.744 64.2505 50.3184 65.2903C49.8927 66.3302 49.7838 67.4726 50.0051 68.5742C50.2264 69.6758 50.7682 70.6874 51.5625 71.4822L57.4063 77.3259C57.6965 77.6165 58.0411 77.847 58.4205 78.0042C58.7999 78.1615 59.2065 78.2424 59.6172 78.2424C60.0279 78.2424 60.4345 78.1615 60.8139 78.0042C61.1932 77.847 61.5379 77.6165 61.8281 77.3259L67.6719 71.4822C68.225 70.9582 68.6674 70.3286 68.9732 69.6308C69.2789 68.9329 69.4418 68.1809 69.452 67.4191C69.4623 66.6572 69.3199 65.9011 69.033 65.1952C68.7462 64.4894 68.3209 63.8481 67.7822 63.3094C67.2434 62.7706 66.6022 62.3453 65.8963 62.0585C65.1905 61.7717 64.4343 61.6292 63.6725 61.6395C62.9107 61.6498 62.1586 61.8126 61.4608 62.1184C60.7629 62.4241 60.1334 62.8666 59.6094 63.4197C59.083 62.8905 58.4573 62.4704 57.7682 62.1835C57.0791 61.8966 56.3402 61.7485 55.5938 61.7478H55.5469ZM70.7031 51.4509C72.5533 51.4385 74.3875 51.7937 76.0993 52.496C77.8111 53.1983 79.3663 54.2336 80.6746 55.542C81.9829 56.8503 83.0183 58.4055 83.7206 60.1172C84.4229 61.829 84.7781 63.6632 84.7656 65.5134V74.6072C84.7698 76.4514 84.4084 78.2781 83.7022 79.9818C82.996 81.6855 81.9591 83.2322 80.6514 84.5326C79.3437 85.8331 77.7912 86.8614 76.0836 87.558C74.376 88.2547 72.5473 88.606 70.7031 88.5915H76.6406C78.4848 88.606 80.3135 88.2547 82.0211 87.558C83.7287 86.8614 85.2812 85.8331 86.5889 84.5326C87.8966 83.2322 88.9335 81.6855 89.6397 79.9818C90.3459 78.2781 90.7073 76.4514 90.7031 74.6072V65.4509C90.7156 63.6007 90.3604 61.7665 89.6581 60.0547C88.9558 58.343 87.9204 56.7878 86.6121 55.4795C85.3038 54.1711 83.7486 53.1358 82.0368 52.4335C80.325 51.7312 78.4908 51.376 76.6406 51.3884L70.7031 51.4509Z" fill="#E6EDF2"/>
<path d="M55.6875 71.4822L61.5313 77.3259C61.8215 77.6165 62.1661 77.847 62.5455 78.0043C62.9249 78.1615 63.3315 78.2425 63.7422 78.2425C64.1529 78.2425 64.5595 78.1615 64.9389 78.0043C65.3182 77.847 65.6629 77.6165 65.9531 77.3259L71.875 71.4822C72.8549 70.3977 73.3809 68.9783 73.3446 67.5172C73.3083 66.056 72.7124 64.6645 71.6799 63.63C70.6474 62.5955 69.2571 61.9969 67.796 61.9578C66.3349 61.9186 64.9145 62.4419 63.8281 63.4197C62.7495 62.3977 61.3145 61.8371 59.8287 61.8571C58.343 61.8772 56.9237 62.4763 55.873 63.527C54.8223 64.5777 54.2231 65.997 54.2031 67.4828C54.183 68.9686 54.7437 70.4035 55.7656 71.4822H55.6875Z" fill="#FD4755"/>
<path d="M76.6406 49.8884H64.7031V45.4822C64.6866 44.3019 64.5079 43.1294 64.1719 41.9978H72.9375C76.1713 41.9978 79.2728 40.7143 81.5609 38.4291C83.849 36.144 85.1365 33.0441 85.1406 29.8103V22.8728C85.1365 19.6376 83.8495 16.5361 81.5618 14.2485C79.2742 11.9608 76.1727 10.6738 72.9375 10.6697H53.3281C50.0942 10.6779 46.9951 11.9663 44.7083 14.253C42.4216 16.5397 41.1333 19.6389 41.125 22.8728V32.3884H20.9062C17.4348 32.3926 14.1068 33.7734 11.6521 36.2281C9.19748 38.6827 7.81664 42.0108 7.8125 45.4822V59.5447C7.81664 63.0161 9.19748 66.3441 11.6521 68.7988C14.1068 71.2534 17.4348 72.6343 20.9062 72.6384H35.2969V84.8884C35.303 85.5813 35.4458 86.2661 35.7171 86.9036C35.9883 87.5411 36.3828 88.1189 36.8777 88.6037C37.3727 89.0885 37.9585 89.4709 38.6015 89.7289C39.2446 89.9869 39.9322 90.1154 40.625 90.1072H76.6406C78.6925 90.1072 80.7243 89.703 82.6201 88.9178C84.5158 88.1326 86.2383 86.9816 87.6892 85.5307C89.1401 84.0798 90.291 82.3573 91.0762 80.4616C91.8615 78.5659 92.2656 76.5341 92.2656 74.4822V65.4509C92.2491 61.3178 90.5956 57.3595 87.6671 54.4428C84.7387 51.526 80.7738 49.8884 76.6406 49.8884ZM44.25 22.8728C44.2541 20.4664 45.2119 18.1597 46.9135 16.4582C48.6151 14.7566 50.9217 13.7988 53.3281 13.7947H72.9375C75.3439 13.7988 77.6506 14.7566 79.3521 16.4582C81.0537 18.1597 82.0115 20.4664 82.0156 22.8728V29.8103C82.0115 32.2153 81.0532 34.5203 79.3512 36.2194C77.6492 37.9185 75.3425 38.8728 72.9375 38.8728H62.8438C61.694 36.9003 60.0474 35.2637 58.068 34.1259C56.0886 32.9882 53.8456 32.3891 51.5625 32.3884H44.2188L44.25 22.8728ZM20.9062 69.4665C18.2624 69.4665 15.7268 68.4163 13.8573 66.5468C11.9878 64.6773 10.9375 62.1417 10.9375 59.4978V45.4353C10.9375 42.7914 11.9878 40.2558 13.8573 38.3863C15.7268 36.5168 18.2624 35.4666 20.9062 35.4666H51.5625C54.2078 35.4665 56.745 36.5163 58.617 38.3854C60.489 40.2544 61.5427 42.79 61.5469 45.4353V49.8415H55.1094C54.5803 48.6295 53.6618 47.6288 52.4994 46.9981C51.3371 46.3674 49.9974 46.1428 48.6929 46.3599C47.3884 46.577 46.1937 47.2234 45.2982 48.1966C44.4028 49.1698 43.8579 50.4141 43.75 51.7322C43.2443 51.9669 42.7537 52.233 42.2812 52.529C42.2873 52.4198 42.2873 52.3102 42.2812 52.2009C42.2812 50.6013 41.6458 49.0673 40.5147 47.9362C39.3837 46.8051 37.8496 46.1697 36.25 46.1697C35.458 46.1697 34.6737 46.3257 33.9419 46.6288C33.2102 46.9319 32.5453 47.3761 31.9853 47.9362C31.4252 48.4962 30.981 49.1611 30.6779 49.8929C30.3748 50.6246 30.2188 51.4089 30.2188 52.2009C30.2188 52.993 30.3748 53.7772 30.6779 54.509C30.981 55.2407 31.4252 55.9056 31.9853 56.4657C32.5453 57.0257 33.2102 57.47 33.9419 57.7731C34.6737 58.0762 35.458 58.2322 36.25 58.2322C36.5941 58.1962 36.9341 58.1282 37.2656 58.029C35.9973 60.2987 35.3203 62.851 35.2969 65.4509V69.4665H20.9062ZM51.3594 49.8884H50.8594C49.7175 49.8955 48.58 50.0318 47.4688 50.2947C47.7341 49.9815 48.0644 49.7298 48.4367 49.5572C48.8091 49.3845 49.2146 49.2949 49.625 49.2947C50.2511 49.3057 50.8579 49.5135 51.3594 49.8884ZM38.3125 54.2478C38.0419 54.5172 37.7199 54.7294 37.3655 54.8717C37.0112 55.014 36.6318 55.0834 36.25 55.0759C35.6752 55.0759 35.1133 54.9055 34.6354 54.5861C34.1574 54.2668 33.7849 53.8129 33.565 53.2818C33.345 52.7508 33.2875 52.1664 33.3996 51.6027C33.5117 51.0389 33.7885 50.5211 34.195 50.1146C34.6014 49.7082 35.1193 49.4314 35.683 49.3193C36.2468 49.2071 36.8311 49.2647 37.3622 49.4846C37.8932 49.7046 38.3471 50.0771 38.6665 50.555C38.9858 51.033 39.1562 51.5949 39.1562 52.1697C39.1629 52.555 39.0916 52.9378 38.9466 53.2949C38.8016 53.652 38.5859 53.9762 38.3125 54.2478ZM89.0625 74.5447C89.0625 77.8599 87.7455 81.0393 85.4013 83.3835C83.0571 85.7277 79.8777 87.0447 76.5625 87.0447H40.625C40.0585 87.0406 39.5164 86.8137 39.1159 86.4132C38.7153 86.0126 38.4885 85.4705 38.4844 84.9041V65.4509C38.4844 62.1357 39.8013 58.9563 42.1455 56.6121C44.4897 54.2679 47.6692 52.9509 50.9844 52.9509H76.7656C80.0808 52.9509 83.2603 54.2679 85.6045 56.6121C87.9487 58.9563 89.2656 62.1357 89.2656 65.4509L89.0625 74.5447Z" fill="black"/>
<path d="M63.75 61.4041C62.2507 60.4118 60.4368 60.0108 58.6589 60.2783C56.881 60.5459 55.2655 61.4632 54.1247 62.8528C52.9839 64.2424 52.3988 66.0056 52.4825 67.8015C52.5663 69.5974 53.3129 71.2985 54.5781 72.5759L60.4219 78.5134C60.8574 78.9504 61.3748 79.2972 61.9446 79.5338C62.5144 79.7703 63.1252 79.8921 63.7422 79.8921C64.3591 79.8921 64.97 79.7703 65.5398 79.5338C66.1096 79.2972 66.627 78.9504 67.0625 78.5134L72.9062 72.6541C74.2659 71.2919 75.0295 69.4459 75.0295 67.5212C75.0295 65.5966 74.2659 63.7506 72.9062 62.3884C71.7272 61.1944 70.1719 60.4443 68.5035 60.2649C66.8351 60.0855 65.1559 60.4879 63.75 61.4041ZM70.7031 70.3728L64.8438 76.2166C64.551 76.5076 64.155 76.6709 63.7422 76.6709C63.3294 76.6709 62.9334 76.5076 62.6406 76.2166L56.7969 70.3728C56.0116 69.5979 55.5663 68.5427 55.559 67.4395C55.5553 66.8932 55.6594 66.3516 55.865 65.8455C56.0707 65.3394 56.3741 64.8788 56.7578 64.49C57.1415 64.1012 57.5981 63.7917 58.1014 63.5793C58.6047 63.3669 59.1449 63.2557 59.6911 63.2521C60.7944 63.2448 61.8553 63.676 62.6406 64.4509C62.9334 64.7419 63.3294 64.9053 63.7422 64.9053C64.155 64.9053 64.551 64.7419 64.8438 64.4509C65.6339 63.6991 66.6828 63.2798 67.7734 63.2798C68.8641 63.2798 69.913 63.6991 70.7031 64.4509C71.4732 65.2316 71.9049 66.2841 71.9049 67.3806C71.9049 68.4772 71.4732 69.5296 70.7031 70.3103V70.3728ZM22.8906 46.1697C21.291 46.1697 19.757 46.8051 18.6259 47.9362C17.4948 49.0673 16.8594 50.6013 16.8594 52.2009C16.8594 53.8005 17.4948 55.3346 18.6259 56.4657C19.757 57.5967 21.291 58.2322 22.8906 58.2322C24.4902 58.2322 26.0243 57.5967 27.1554 56.4657C28.2864 55.3346 28.9219 53.8005 28.9219 52.2009C28.9219 50.6013 28.2864 49.0673 27.1554 47.9362C26.0243 46.8051 24.4902 46.1697 22.8906 46.1697ZM25 54.2478C24.735 54.5224 24.4168 54.7402 24.0649 54.888C23.713 55.0357 23.3348 55.1103 22.9531 55.1072C22.3783 55.1072 21.8164 54.9367 21.3385 54.6174C20.8606 54.298 20.4881 53.8442 20.2681 53.3131C20.0481 52.7821 19.9906 52.1977 20.1027 51.6339C20.2149 51.0702 20.4916 50.5523 20.8981 50.1459C21.3045 49.7395 21.8224 49.4627 22.3861 49.3505C22.9499 49.2384 23.5343 49.2959 24.0653 49.5159C24.5963 49.7359 25.0502 50.1084 25.3696 50.5863C25.6889 51.0642 25.8594 51.6261 25.8594 52.2009C25.8625 52.5826 25.7879 52.9608 25.6402 53.3127C25.4924 53.6646 25.2746 53.9828 25 54.2478ZM54.6875 27.9822H71.5938C72.0081 27.9822 72.4056 27.8176 72.6986 27.5245C72.9916 27.2315 73.1562 26.8341 73.1562 26.4197C73.1562 26.0053 72.9916 25.6078 72.6986 25.3148C72.4056 25.0218 72.0081 24.8572 71.5938 24.8572H54.6875C54.2731 24.8572 53.8757 25.0218 53.5826 25.3148C53.2896 25.6078 53.125 26.0053 53.125 26.4197C53.125 26.8341 53.2896 27.2315 53.5826 27.5245C53.8757 27.8176 54.2731 27.9822 54.6875 27.9822Z" fill="black"/>
</svg>
