<svg width="26" height="26" viewBox="0 0 26 26" fill="none" xmlns="http://www.w3.org/2000/svg">
<path d="M12.987 0C5.811 0 0 5.824 0 13C0 20.176 5.811 26 12.987 26C20.176 26 26 20.176 26 13C26 5.824 20.176 0 12.987 0ZM21.996 7.8H18.161C17.745 6.175 17.147 4.615 16.367 3.172C18.759 3.991 20.748 5.655 21.996 7.8ZM13 2.652C14.079 4.212 14.924 5.941 15.483 7.8H10.517C11.076 5.941 11.921 4.212 13 2.652ZM2.938 15.6C2.73 14.768 2.6 13.897 2.6 13C2.6 12.103 2.73 11.232 2.938 10.4H7.332C7.228 11.258 7.15 12.116 7.15 13C7.15 13.884 7.228 14.742 7.332 15.6H2.938ZM4.004 18.2H7.839C8.255 19.825 8.853 21.385 9.633 22.828C7.241 22.009 5.252 20.358 4.004 18.2ZM7.839 7.8H4.004C5.252 5.642 7.241 3.991 9.633 3.172C8.853 4.615 8.255 6.175 7.839 7.8ZM13 23.348C11.921 21.788 11.076 20.059 10.517 18.2H15.483C14.924 20.059 14.079 21.788 13 23.348ZM16.042 15.6H9.958C9.841 14.742 9.75 13.884 9.75 13C9.75 12.116 9.841 11.245 9.958 10.4H16.042C16.159 11.245 16.25 12.116 16.25 13C16.25 13.884 16.159 14.742 16.042 15.6ZM16.367 22.828C17.147 21.385 17.745 19.825 18.161 18.2H21.996C20.748 20.345 18.759 22.009 16.367 22.828ZM18.668 15.6C18.772 14.742 18.85 13.884 18.85 13C18.85 12.116 18.772 11.258 18.668 10.4H23.062C23.27 11.232 23.4 12.103 23.4 13C23.4 13.897 23.27 14.768 23.062 15.6H18.668Z" fill="white"/>
</svg>
