<svg width="40" height="40" viewBox="0 0 40 40" fill="none" xmlns="http://www.w3.org/2000/svg">
<path d="M34.1632 5.81562C30.4037 2.07006 25.4047 0.0061915 20.0786 0.00390625C9.10325 0.00390625 0.171561 8.89346 0.167167 19.82C0.165888 23.3127 1.08252 26.7221 2.82479 29.7274L0 39.9963L10.5553 37.2407C13.4634 38.8198 16.7378 39.6518 20.07 39.6532H20.0785H20.0786C31.0521 39.6532 39.9851 30.762 39.9898 19.836C39.9916 14.5405 37.9223 9.56143 34.1632 5.81562ZM20.0786 36.3061H20.0721C17.102 36.3046 14.1894 35.5107 11.6489 34.0098L11.0443 33.653L4.78059 35.288L6.45291 29.2101L6.059 28.5869C4.40225 25.9643 3.52762 22.9334 3.52887 19.8213C3.53251 10.7395 10.9562 3.35104 20.0848 3.35104C24.5054 3.35287 28.6602 5.06838 31.785 8.18157C34.9096 11.2947 36.6291 15.4332 36.6278 19.8346C36.6239 28.9167 29.2 36.3061 20.0786 36.3061Z" fill="#E0E0E0"/>
<path d="M1.21188 38.8568L3.90764 29.057C2.24453 26.189 1.36993 22.9351 1.37098 19.6026C1.37535 9.17537 9.89912 0.692139 20.3722 0.692139C25.4552 0.694424 30.226 2.66392 33.813 6.23847C37.4008 9.81299 39.3754 14.5643 39.3733 19.6174C39.3689 30.0448 30.8447 38.5288 20.3729 38.5288C20.3722 38.5288 20.3734 38.5288 20.3729 38.5288H20.3645C17.1845 38.5278 14.0599 37.733 11.2848 36.2272L1.21188 38.8568Z" fill="url(#paint0_linear_3323_5563)"/>
<path fill-rule="evenodd" clip-rule="evenodd" d="M15.3831 11.4071C15.0147 10.5917 14.6269 10.5753 14.2764 10.5611C13.9897 10.5488 13.6616 10.5496 13.3339 10.5496C13.006 10.5496 12.4732 10.6723 12.0226 11.1622C11.5717 11.6522 10.3011 12.8366 10.3011 15.2456C10.3011 17.6548 12.0636 19.9826 12.3092 20.3096C12.5552 20.636 15.7115 25.7376 20.7103 27.7002C24.8647 29.3312 25.7101 29.0068 26.6119 28.9252C27.5136 28.8435 29.5215 27.741 29.9314 26.5976C30.3413 25.4544 30.3413 24.4745 30.2183 24.2697C30.0953 24.0657 29.7674 23.9432 29.2756 23.6984C28.7837 23.4535 26.3659 22.2688 25.9151 22.1056C25.4642 21.9424 25.1363 21.8608 24.8084 22.351C24.4805 22.8407 23.5385 23.9432 23.2516 24.2697C22.9647 24.5969 22.6777 24.6377 22.1859 24.3929C21.694 24.1473 20.1101 23.6308 18.231 21.9627C16.769 20.6651 15.782 19.0623 15.495 18.5721C15.2081 18.0824 15.4643 17.8172 15.711 17.5731C15.9318 17.3537 16.2029 17.0015 16.4488 16.7156C16.6942 16.4297 16.7762 16.2256 16.9401 15.8992C17.1041 15.5722 17.0221 15.2863 16.8991 15.0415C16.7762 14.7966 15.8204 12.3752 15.3831 11.4071Z" fill="white"/>
<path d="M33.771 5.75258C30.0547 2.05003 25.113 0.00988625 19.8481 0.00756836C8.99874 0.00756836 0.169593 8.79506 0.165232 19.5962C0.163953 23.0488 1.07006 26.419 2.79232 29.3898L0 39.5408L10.4341 36.8169C13.3089 38.3778 16.5457 39.2003 19.8396 39.2016H19.848H19.8481C30.6956 39.2016 39.5261 30.4126 39.5307 19.612C39.5325 14.3773 37.4869 9.4554 33.771 5.75258ZM19.8481 35.8931H19.8417C16.9057 35.8916 14.0265 35.1068 11.5152 33.6232L10.9175 33.2704L4.72569 34.8867L6.3788 28.8785L5.98941 28.2625C4.35168 25.67 3.48709 22.6739 3.48837 19.5975C3.49194 10.62 10.8304 3.31635 19.8543 3.31635C24.2241 3.31814 28.3312 5.01396 31.4202 8.0914C34.5089 11.1688 36.2086 15.2598 36.2073 19.6108C36.2035 28.5885 28.8647 35.8931 19.8481 35.8931Z" fill="white"/>
<defs>
<linearGradient id="paint0_linear_3323_5563" x1="20.2926" y1="38.8568" x2="20.2926" y2="0.692202" gradientUnits="userSpaceOnUse">
<stop stop-color="#20B038"/>
<stop offset="1" stop-color="#60D66A"/>
</linearGradient>
</defs>
</svg>
