<svg width="130" height="130" viewBox="0 0 130 130" fill="none" xmlns="http://www.w3.org/2000/svg">
<circle cx="65" cy="65" r="65" fill="#FF6E6E"/>
<path fill-rule="evenodd" clip-rule="evenodd" d="M47.6513 70.5877C44.7681 68.724 41.3588 67.8444 37.9338 68.0806C34.5088 68.3168 31.2525 69.6562 28.6525 71.898L35.6133 44.579C36.0132 44.3076 36.4229 44.0508 36.8416 43.8093C37.1638 43.7275 37.4428 43.5264 37.6222 43.2466C37.8016 42.9668 37.868 42.6293 37.8079 42.3025C37.6923 41.6872 37.6484 41.0607 37.6769 40.4353C44.3593 37.4873 49.846 39.7966 53.6457 42.7938C53.508 43.3539 53.3104 43.8975 53.0561 44.4153C52.9499 44.7164 52.9573 45.046 53.0769 45.342C53.1966 45.6381 53.4202 45.8803 53.7058 46.0231C53.9914 46.1659 54.3193 46.1995 54.6279 46.1175C54.9366 46.0356 55.2047 45.8438 55.3818 45.5781C55.5259 45.2893 55.6571 44.9942 55.7749 44.6937C56.9214 45.8402 57.8058 46.9375 58.4282 47.7892C58.9005 47.3407 59.429 46.9553 60.0005 46.6427C61.5494 45.8455 63.2704 45.4406 65.0123 45.4635C66.7555 45.4456 68.4765 45.8562 70.024 46.6591C70.5945 46.9666 71.123 47.3464 71.5963 47.7892C72.3976 46.6936 73.279 45.659 74.2332 44.6937C74.3511 44.9942 74.4822 45.2893 74.6263 45.5781C74.7934 45.8657 75.0637 46.079 75.3823 46.1747C75.7009 46.2703 76.0439 46.2413 76.3418 46.0933C76.6398 45.9454 76.8703 45.6897 76.9866 45.3781C77.103 45.0665 77.0965 44.7223 76.9684 44.4153C76.7085 43.8982 76.5053 43.3546 76.3624 42.7938C80.1622 39.7966 85.6653 37.5036 92.3476 40.4353C92.3756 41.0607 92.3316 41.6872 92.2166 42.3025C92.1558 42.6271 92.22 42.9627 92.3961 43.2421C92.5723 43.5215 92.8474 43.7241 93.1665 43.8093C93.576 44.0386 93.9854 44.3006 94.3949 44.579L101.339 71.8816C98.7406 69.6436 95.4874 68.3065 92.0659 68.0704C88.6444 67.8342 85.2384 68.7116 82.3568 70.5714C78.6226 72.979 76.6244 77.1227 76.6408 77.0735C75.1013 79.7432 74.5117 81.2336 71.6946 83.0516C69.7017 84.3339 67.382 85.0158 65.0123 85.0158C62.6425 85.0158 60.3228 84.3339 58.3299 83.0516C53.0889 79.6941 53.7931 74.5349 47.6513 70.5877ZM61.1306 54.9956C60.7831 54.9956 60.4498 55.1337 60.2041 55.3794C59.9584 55.6251 59.8203 55.9584 59.8203 56.3059V78.4821C59.8203 78.8296 59.9584 79.1629 60.2041 79.4086C60.4498 79.6543 60.7831 79.7923 61.1306 79.7923H69.6473C69.9948 79.7923 70.3281 79.6543 70.5738 79.4086C70.8195 79.1629 70.9576 78.8296 70.9576 78.4821V56.3059C70.9576 55.9584 70.8195 55.6251 70.5738 55.3794C70.3281 55.1337 69.9948 54.9956 69.6473 54.9956H61.1306Z" fill="#FF6E6E"/>
<path d="M105.385 77.1555L96.8189 43.4653L95.5414 43.7929L96.8189 43.4653C96.7398 43.1421 96.5407 42.861 96.262 42.6792C83.7163 33.7366 74.5608 43.7438 71.5964 47.7892C71.124 47.3407 70.5955 46.9553 70.024 46.6427C68.4751 45.8455 66.7542 45.4406 65.0123 45.4635C63.269 45.4457 61.548 45.8562 60.0005 46.6591C59.43 46.9666 58.9015 47.3464 58.4282 47.7892C55.4474 43.7274 46.2755 33.7039 33.697 42.7119L34.4668 43.7929L33.697 42.7283C33.4401 42.9149 33.2597 43.1885 33.1893 43.4981L24.6235 77.1555C23.1956 80.1305 22.7295 83.4764 23.2901 86.7285C23.8507 89.9805 25.4101 92.9773 27.7517 95.3026C29.2299 96.7911 30.988 97.9725 32.9247 98.7787C34.8614 99.5849 36.9385 100 39.0363 100C41.1342 100 43.2113 99.5849 45.148 98.7787C47.0847 97.9725 48.8428 96.7911 50.321 95.3026C51.8348 93.7962 53.0298 92.0004 53.8346 90.0222C54.6394 88.044 55.0375 85.924 55.0052 83.7887C57.7629 86.2385 61.3235 87.5916 65.0123 87.5916C68.701 87.5916 72.2616 86.2385 75.0194 83.7887V84.0179C75.0108 86.116 75.4173 88.1951 76.2158 90.1354C77.0142 92.0756 78.1886 93.8388 79.6715 95.3231C81.1543 96.8075 82.9162 97.9837 84.8556 98.7841C86.7951 99.5845 88.8737 99.9933 90.9718 99.9868C93.0713 99.9954 95.1517 99.5883 97.0931 98.7889C99.0344 97.9894 100.798 96.8135 102.283 95.3289C103.767 93.8444 104.943 92.0805 105.743 90.1392C106.542 88.1979 106.949 86.1174 106.941 84.0179C106.941 81.6429 106.41 79.2979 105.385 77.1555ZM52.1226 81.3647C52.5513 83.5244 52.4424 85.7565 51.8055 87.8643C51.1686 89.972 50.0232 91.8909 48.4702 93.4518C47.2342 94.6958 45.7644 95.683 44.1453 96.3567C42.5263 97.0303 40.7899 97.3771 39.0363 97.3771C37.2827 97.3771 35.5464 97.0303 33.9274 96.3567C32.3083 95.683 30.8385 94.6958 29.6025 93.4518C28.3585 92.2158 27.3713 90.746 26.6976 89.1269C26.024 87.5079 25.6772 85.7716 25.6772 84.0179C25.6772 82.2643 26.024 80.528 26.6976 78.909C27.3713 77.2899 28.3585 75.8201 29.6025 74.5841C30.9909 73.1839 32.6732 72.11 34.5278 71.4401C36.3823 70.7701 38.3627 70.521 40.3254 70.7107C42.2881 70.9004 44.184 71.5241 45.876 72.5368C47.5679 73.5495 49.0135 74.9257 50.1081 76.5658C51.1726 78.5148 51.664 79.0881 52.1226 81.3647ZM47.6513 70.5878C44.7681 68.7241 41.3588 67.8445 37.9338 68.0807C34.5089 68.3169 31.2526 69.6562 28.6525 71.898L35.6133 44.5791C47.9461 36.1279 56.4464 49.3943 57.1671 50.5735C57.2746 50.7881 57.439 50.9689 57.6423 51.0964C57.8456 51.2239 58.08 51.2931 58.32 51.2965C58.56 51.2999 58.7962 51.2373 59.003 51.1156C59.2099 50.9939 59.3793 50.8177 59.4928 50.6063L58.3463 49.9839L59.4928 50.6063C59.9014 49.9043 60.5043 49.3354 61.2289 48.9684C62.3936 48.3708 63.6869 48.0672 64.9959 48.084C66.3049 48.0672 67.5982 48.3708 68.7629 48.9684C69.4717 49.3217 70.0674 49.8664 70.4826 50.5408C70.5839 50.7556 70.7416 50.9388 70.9389 51.071C71.1362 51.2031 71.3657 51.2791 71.6029 51.2909C71.8401 51.3026 72.076 51.2497 72.2854 51.1378C72.4949 51.0259 72.67 50.8591 72.792 50.6554C72.8247 50.6063 81.5216 35.7512 94.4113 44.5954L101.339 71.8816C98.7406 69.6436 95.4874 68.3066 92.0659 68.0704C88.6445 67.8342 85.2384 68.7116 82.3569 70.5714C78.6226 72.979 76.6245 77.1227 76.6409 77.0736C75.1013 79.7432 74.5117 81.2336 71.6946 83.0516C69.7018 84.3339 67.382 85.0158 65.0123 85.0158C62.6425 85.0158 60.3228 84.3339 58.3299 83.0516C53.0889 79.6941 53.7932 74.5349 47.6513 70.5878ZM83.7818 72.7825C86.3387 71.1295 89.3864 70.4064 92.4133 70.7345C95.4403 71.0625 98.2623 72.4217 100.406 74.5841C101.65 75.8201 102.637 77.2899 103.311 78.909C103.984 80.528 104.331 82.2643 104.331 84.0179C104.331 85.7716 103.984 87.5079 103.311 89.1269C102.637 90.746 101.65 92.2158 100.406 93.4518C99.1697 94.6958 97.6999 95.683 96.0808 96.3567C94.4618 97.0303 92.7255 97.3771 90.9718 97.3771C89.2182 97.3771 87.4819 97.0303 85.8629 96.3567C84.2438 95.683 82.774 94.6958 81.538 93.4518C80.1203 92.0449 79.0378 90.3367 78.3707 88.454C77.7036 86.5714 77.4691 84.5627 77.6847 82.5771C77.9003 80.5914 78.5603 78.6798 79.6158 76.9842C80.6713 75.2885 82.0952 73.8524 83.7818 72.7825Z" fill="white"/>
<path d="M69.6473 54.9956H61.1306C60.7831 54.9956 60.4498 55.1337 60.2041 55.3794C59.9584 55.6251 59.8203 55.9584 59.8203 56.3059V78.4821C59.8203 78.8296 59.9584 79.1629 60.2041 79.4086C60.4498 79.6543 60.7831 79.7923 61.1306 79.7923H69.6473C69.9948 79.7923 70.3281 79.6543 70.5738 79.4086C70.8195 79.1629 70.9576 78.8296 70.9576 78.4821V56.3059C70.9576 55.9584 70.8195 55.6251 70.5738 55.3794C70.3281 55.1337 69.9948 54.9956 69.6473 54.9956ZM62.4409 57.6162H68.337V77.1718H62.4409V57.6162ZM94.7716 42.7774C94.674 43.0827 94.4679 43.3415 94.1923 43.5051C93.9168 43.6686 93.5908 43.7255 93.2761 43.665C92.9614 43.6045 92.6799 43.4308 92.4846 43.1767C92.2894 42.9226 92.194 42.6057 92.2166 42.2861C92.4466 41.0241 92.374 39.7256 92.0045 38.4971C91.6351 37.2687 90.9794 36.1455 90.0914 35.2198C89.2034 34.2941 88.1085 33.5923 86.8965 33.1721C85.6845 32.7519 84.39 32.6253 83.1196 32.8027C81.8492 32.9801 80.6389 33.4564 79.5884 34.1925C78.5379 34.9286 77.677 35.9035 77.0766 37.0371C76.4761 38.1707 76.1532 39.4305 76.1344 40.7132C76.1156 41.9958 76.4014 43.2646 76.9684 44.4153C77.0965 44.7223 77.103 45.0665 76.9866 45.3781C76.8703 45.6897 76.6398 45.9454 76.3418 46.0933C76.0439 46.2413 75.7008 46.2703 75.3823 46.1747C75.0637 46.079 74.7934 45.8657 74.6263 45.5781C73.609 43.5638 73.2559 41.2789 73.6178 39.0514C73.9798 36.824 75.0381 34.7684 76.6408 33.1798C77.6361 32.18 78.8191 31.3866 80.1218 30.8452C81.4245 30.3039 82.8214 30.0252 84.2321 30.0252C85.6429 30.0252 87.0397 30.3039 88.3425 30.8452C89.6452 31.3866 90.8282 32.18 91.8235 33.1798C93.0616 34.4169 93.9778 35.9386 94.4917 37.6118C95.0056 39.2849 95.1017 41.0586 94.7716 42.7774ZM37.8079 42.2861C37.8564 42.62 37.7742 42.9597 37.5785 43.2345C37.3828 43.5093 37.0886 43.698 36.7572 43.7613C36.4258 43.8246 36.0828 43.7577 35.7995 43.5744C35.5162 43.3911 35.3146 43.1057 35.2365 42.7774C34.9132 41.0997 34.9946 39.3691 35.4741 37.7291C35.9536 36.0892 36.8172 34.5873 37.9934 33.348C39.1696 32.1087 40.6244 31.1677 42.237 30.6033C43.8497 30.0388 45.5737 29.8671 47.266 30.1024C48.9583 30.3376 50.5701 30.9731 51.9677 31.9561C53.3652 32.939 54.5081 34.2411 55.3017 35.7542C56.0952 37.2674 56.5164 38.9479 56.5303 40.6565C56.5443 42.365 56.1505 44.0522 55.3818 45.5781C55.2047 45.8438 54.9366 46.0356 54.6279 46.1175C54.3193 46.1995 53.9914 46.1659 53.7058 46.0231C53.4202 45.8803 53.1965 45.6381 53.0769 45.342C52.9573 45.046 52.9499 44.7164 53.0561 44.4153C53.6214 43.2869 53.9131 42.0413 53.9078 40.7793C53.9223 39.1656 53.4539 37.5844 52.5628 36.239C51.6717 34.8935 50.3986 33.8453 48.9072 33.229C47.4157 32.6127 45.774 32.4565 44.1931 32.7804C42.6122 33.1044 41.1642 33.8937 40.0354 35.0469C39.0991 35.9819 38.4064 37.1323 38.0181 38.3973C37.6298 39.6622 37.5576 41.0031 37.8079 42.3025V42.2861ZM99.7178 84.8696C99.7178 85.2171 99.5798 85.5504 99.334 85.7961C99.0883 86.0418 98.755 86.1799 98.4075 86.1799C98.06 86.1799 97.7268 86.0418 97.481 85.7961C97.2353 85.5504 97.0973 85.2171 97.0973 84.8696C97.0995 84.0352 96.9364 83.2087 96.6177 82.4377C96.2989 81.6666 95.8306 80.9663 95.2399 80.377C94.6491 79.7878 93.9476 79.3214 93.1757 79.0046C92.4038 78.6878 91.5769 78.5269 90.7425 78.5312C90.395 78.5312 90.0617 78.3932 89.816 78.1474C89.5703 77.9017 89.4322 77.5685 89.4322 77.221C89.4322 76.8734 89.5703 76.5402 89.816 76.2945C90.0617 76.0487 90.395 75.9107 90.7425 75.9107C91.9196 75.9085 93.0856 76.1388 94.1735 76.5882C95.2614 77.0377 96.2499 77.6975 97.0822 78.5299C97.9146 79.3622 98.5744 80.3507 99.0239 81.4386C99.4733 82.5265 99.7036 83.6925 99.7014 84.8696H99.7178ZM47.9133 84.8696C47.9133 85.2171 47.7753 85.5504 47.5296 85.7961C47.2838 86.0418 46.9506 86.1799 46.6031 86.1799C46.2556 86.1799 45.9223 86.0418 45.6766 85.7961C45.4309 85.5504 45.2928 85.2171 45.2928 84.8696C45.295 84.0366 45.1325 83.2114 44.8147 82.4415C44.497 81.6715 44.0302 80.9719 43.4412 80.3829C42.8521 79.7939 42.1525 79.3271 41.3826 79.0093C40.6126 78.6915 39.7874 78.529 38.9544 78.5312C38.6069 78.5312 38.2736 78.3932 38.0279 78.1474C37.7822 77.9017 37.6441 77.5685 37.6441 77.221C37.6441 76.8734 37.7822 76.5402 38.0279 76.2945C38.2736 76.0487 38.6069 75.9107 38.9544 75.9107C40.1315 75.9085 41.2975 76.1388 42.3854 76.5882C43.4733 77.0377 44.4618 77.6975 45.2941 78.5299C46.1265 79.3622 46.7863 80.3507 47.2358 81.4386C47.6852 82.5265 47.9155 83.6925 47.9133 84.8696Z" fill="white"/>
</svg>
