<svg width="130" height="130" viewBox="0 0 130 130" fill="none" xmlns="http://www.w3.org/2000/svg">
<circle cx="65" cy="65" r="65" fill="#F8B84E"/>
<g clip-path="url(#clip0_3534_5458)">
<path opacity="0.1" fill-rule="evenodd" clip-rule="evenodd" d="M51.6813 44.5543L48.2473 48.0035L44.8134 51.4334C44.7916 51.4697 44.761 51.4996 44.7243 51.5204C44.6877 51.5413 44.6463 51.5522 44.6042 51.5522C44.5621 51.5522 44.5207 51.5413 44.484 51.5204C44.4473 51.4996 44.4167 51.4697 44.395 51.4334L33.8673 40.8561C33.8163 40.7943 33.7884 40.7165 33.7884 40.6363C33.7884 40.556 33.8163 40.4782 33.8673 40.4164L40.7176 33.5346C40.7734 33.4791 40.8484 33.4476 40.9269 33.4467C41.0106 33.447 41.0913 33.4783 41.1536 33.5346L51.6813 44.1163C51.7278 44.1797 51.7529 44.2565 51.7529 44.3353C51.7529 44.4141 51.7278 44.4908 51.6813 44.5543ZM73.7127 52.0147L73.2426 51.524C72.8802 51.1823 72.6089 50.7548 72.4535 50.2805C72.2982 49.8061 72.2637 49.3003 72.3533 48.8091C73.5385 43.4505 68.6768 38.9327 62.8191 35.115C64.2293 34.7727 65.6734 34.5907 67.124 34.5724C71.3257 34.5724 74.5845 36.6206 77.3909 41.0162C77.5455 41.2669 77.761 41.4739 78.0172 41.6179C78.2734 41.7619 78.5618 41.8381 78.8553 41.8394H82.1142C82.9504 41.8423 83.7518 42.1755 84.3455 42.7672L86.35 44.782C86.6449 45.0747 86.8786 45.4238 87.0372 45.8087C87.1958 46.1935 87.2761 46.6064 87.2734 47.0229V47.672C87.278 48.9386 87.781 50.1521 88.6725 51.0476C89.5641 51.9432 90.7719 52.4483 92.0327 52.4527C92.4407 52.4497 92.8453 52.5287 93.2225 52.6852C93.5997 52.8417 93.9418 53.0724 94.2289 53.3638L95.2741 54.4148C95.8672 55.0296 96.1989 55.8522 96.1989 56.7084C96.1989 57.5647 95.8672 58.3873 95.2741 59.0021L90.5157 63.7661C89.917 64.3482 89.1166 64.6736 88.2836 64.6736C87.4505 64.6736 86.6501 64.3482 86.0515 63.7661L84.6396 62.3652C84.3448 62.0684 84.1114 61.716 83.9528 61.3282C83.7941 60.9405 83.7134 60.525 83.7152 60.1058C83.7159 59.4778 83.5933 58.8558 83.3544 58.2755C83.1155 57.6951 82.765 57.1678 82.3231 56.7238C81.8811 56.2797 81.3562 55.9276 80.7786 55.6876C80.201 55.4476 79.5819 55.3244 78.9569 55.325H78.3292C77.4871 55.3252 76.679 54.9915 76.0805 54.3963C75.9413 54.2565 75.8179 54.1167 75.698 53.9935L73.7127 52.0147ZM95.71 94.3416L94.368 95.6898C93.8422 96.1876 93.1469 96.4649 92.4244 96.4649C91.7019 96.4649 91.0066 96.1876 90.4807 95.6898L78.4667 83.6244C78.4245 83.5756 78.4012 83.5132 78.4012 83.4485C78.4012 83.3839 78.4245 83.3214 78.4667 83.2726L80.9071 80.8216L83.3476 78.3696C83.3699 78.3459 83.3972 78.3273 83.4274 78.3151C83.4576 78.303 83.4901 78.2976 83.5226 78.2993C83.5578 78.296 83.5932 78.3006 83.6263 78.3128C83.6595 78.3249 83.6896 78.3444 83.7143 78.3696L95.7064 90.4183C96.2211 90.94 96.5102 91.6445 96.511 92.379C96.5119 93.1135 96.2235 93.8187 95.71 94.3416Z" fill="#F8B84E"/>
<path fill-rule="evenodd" clip-rule="evenodd" d="M98.1848 87.9515L86.1751 75.8853C85.4639 75.2024 84.518 74.8214 83.5342 74.8214C82.5505 74.8214 81.6046 75.2024 80.8933 75.8853L79.6731 77.1112L70.4531 67.847L75.8391 61.8051C76.6094 60.9501 77.107 59.8828 77.2677 58.741C77.6195 58.7972 77.975 58.8266 78.3312 58.829H78.9588C79.1274 58.8291 79.2943 58.8628 79.4498 58.9282C79.6054 58.9936 79.7463 59.0893 79.8647 59.2099C79.9831 59.3305 80.0766 59.4735 80.1395 59.6307C80.2025 59.7878 80.2338 59.9559 80.2316 60.1253C80.2299 61.0012 80.4017 61.8688 80.7368 62.6774C81.0719 63.4861 81.5637 64.2197 82.1836 64.8357L83.578 66.2543C84.1937 66.8761 84.9257 67.3695 85.7319 67.7063C86.538 68.043 87.4025 68.2163 88.2755 68.2163C89.1485 68.2163 90.0129 68.043 90.8191 67.7063C91.6252 67.3695 92.3572 66.8761 92.973 66.2543L97.7314 61.4735C98.3565 60.8396 98.8508 60.0878 99.1858 59.2613C99.5208 58.4348 99.6899 57.5499 99.6833 56.6576C99.6851 55.779 99.5135 54.9088 99.1784 54.0972C98.8434 53.2857 98.3515 52.549 97.7314 51.9296L96.7028 50.8962C96.0912 50.2775 95.3634 49.7871 94.5616 49.4535C93.7597 49.1198 92.8999 48.9495 92.032 48.9526C91.695 48.9507 91.3724 48.8154 91.1341 48.576C90.8958 48.3366 90.7611 48.0124 90.7593 47.6739V47.0257C90.7623 46.151 90.5929 45.2844 90.2607 44.4759C89.9285 43.6674 89.4401 42.9331 88.8239 42.3153L86.8027 40.2837C85.5557 39.0402 83.8705 38.3417 82.1135 38.3401H79.7957C76.4317 33.4538 72.2677 31.0722 67.1233 31.0722C64.008 31.1991 60.9292 31.7952 57.9901 32.8408C57.6686 32.9435 57.3835 33.1373 57.1691 33.3989C56.9546 33.6605 56.82 33.9788 56.7813 34.3155C56.7427 34.6522 56.8017 34.9929 56.9512 35.2967C57.1007 35.6005 57.3344 35.8545 57.6242 36.028C62.941 39.1457 69.8955 43.8042 68.9537 48.0415C68.7767 48.8361 68.7651 49.6589 68.9195 50.4582C67.8126 50.6226 66.7801 51.1167 65.9556 51.8768L59.9421 57.2881L51.9424 49.2498L54.1386 47.0257C54.4923 46.674 54.7731 46.2554 54.9647 45.794C55.1563 45.3326 55.255 44.8376 55.255 44.3376C55.255 43.8376 55.1563 43.3426 54.9647 42.8812C54.7731 42.4198 54.4923 42.0012 54.1386 41.6495L43.61 31.0722C42.8893 30.3808 41.931 29.995 40.9345 29.995C39.938 29.995 38.9798 30.3808 38.2591 31.0722L31.392 37.954C30.688 38.6736 30.2934 39.6423 30.2934 40.6513C30.2934 41.6604 30.688 42.6291 31.392 43.3486L41.9197 53.9259C42.636 54.6328 43.5999 55.0289 44.6039 55.0289C45.608 55.0289 46.5719 54.6328 47.2882 53.9259L49.4844 51.7194L57.345 59.617L51.1922 65.1514C50.8831 65.4714 50.7065 65.8973 50.6981 66.3431C50.6897 66.7889 50.8501 67.2213 51.1469 67.5528C51.4437 67.8843 51.8547 68.0902 52.2969 68.1288C52.739 68.1674 53.1792 68.0359 53.5284 67.7608L59.8204 62.1041L62.4175 59.7577L68.2744 54.4861C68.6783 54.1075 69.2101 53.897 69.7625 53.897C70.3149 53.897 70.8467 54.1075 71.2506 54.4861L73.2376 56.4825C73.6155 56.8852 73.826 57.4177 73.826 57.971C73.826 58.5244 73.6155 59.0569 73.2376 59.4595L67.9733 65.3616L65.6554 67.971L43.9024 92.3655C43.3415 92.9957 42.6572 93.503 41.8925 93.8556C41.1277 94.2081 40.2987 94.3985 39.4574 94.4147C38.6987 94.4382 37.9433 94.3042 37.2386 94.0209C36.5338 93.7376 35.8948 93.3112 35.3617 92.7683L35.135 92.5405C34.5988 92.0009 34.1759 91.3587 33.8915 90.6518C33.607 89.9449 33.4667 89.1879 33.4788 88.4255C33.4983 87.5791 33.6909 86.7458 34.0448 85.9775C34.3987 85.2092 34.9063 84.5223 35.5359 83.9596L44.9834 75.4658C45.3261 75.1513 45.5312 74.7135 45.554 74.2478C45.5768 73.7821 45.4154 73.3262 45.1051 72.9795C44.9518 72.8091 44.7667 72.6707 44.5602 72.5722C44.3536 72.4738 44.1298 72.4172 43.9015 72.4058C43.6732 72.3943 43.4449 72.4282 43.2297 72.5056C43.0144 72.5829 42.8165 72.7021 42.6471 72.8564L33.2005 81.3503C32.2184 82.2399 31.4274 83.3216 30.8759 84.5291C30.3244 85.7366 30.0241 87.0445 29.9932 88.3728C29.9763 89.6016 30.2034 90.8215 30.6612 91.9611C31.119 93.1008 31.7983 94.1373 32.6595 95.0101L32.8862 95.2378C34.611 96.9558 36.942 97.9188 39.3707 97.9167H39.4924C40.8146 97.8964 42.1182 97.6011 43.3211 97.0495C44.5241 96.498 45.6003 95.702 46.482 94.7119L68.1379 70.4502L77.2195 79.5746L76.0168 80.783C75.6686 81.1323 75.3923 81.5473 75.2038 82.004C75.0153 82.4607 74.9183 82.9503 74.9183 83.4447C74.9183 83.9391 75.0153 84.4287 75.2038 84.8854C75.3923 85.3421 75.6686 85.757 76.0168 86.1064L88.009 98.155C88.5892 98.7387 89.2783 99.2017 90.0368 99.5176C90.7953 99.8335 91.6083 99.996 92.4294 99.996C93.2505 99.996 94.0635 99.8335 94.822 99.5176C95.5805 99.2017 96.2696 98.7387 96.8499 98.155L98.1926 96.8068C99.3512 95.6266 100 94.0352 99.9986 92.3775C99.9971 90.7199 99.3454 89.1296 98.1848 87.9515ZM51.6815 44.5544L48.2476 48.0036L44.8136 51.4335C44.7919 51.4698 44.7612 51.4998 44.7245 51.5206C44.6879 51.5414 44.6465 51.5523 44.6044 51.5523C44.5623 51.5523 44.5209 51.5414 44.4842 51.5206C44.4476 51.4998 44.4169 51.4698 44.3952 51.4335L33.8675 40.8562C33.8165 40.7944 33.7886 40.7166 33.7886 40.6364C33.7886 40.5561 33.8165 40.4783 33.8675 40.4165L40.7179 33.5347C40.7736 33.4792 40.8486 33.4477 40.9271 33.4468C41.0108 33.4472 41.0915 33.4784 41.1538 33.5347L51.6815 44.1164C51.728 44.1799 51.7531 44.2566 51.7531 44.3354C51.7531 44.4142 51.728 44.4909 51.6815 44.5544ZM73.7129 52.0149L73.2429 51.5241C72.8804 51.1825 72.6091 50.7549 72.4537 50.2806C72.2984 49.8063 72.2639 49.3004 72.3535 48.8092C73.5387 43.4507 68.6771 38.9328 62.8193 35.1151C64.2295 34.7729 65.6736 34.5909 67.1242 34.5725C71.3259 34.5725 74.5848 36.6207 77.3911 41.0163C77.5457 41.267 77.7612 41.474 78.0174 41.618C78.2736 41.762 78.562 41.8383 78.8555 41.8395H82.1144C82.9506 41.8424 83.7521 42.1756 84.3457 42.7673L86.3502 44.7822C86.6451 45.0749 86.8788 45.4239 87.0374 45.8088C87.196 46.1937 87.2763 46.6065 87.2737 47.023V47.6721C87.2783 48.9387 87.7812 50.1522 88.6727 51.0478C89.5643 51.9434 90.7722 52.4484 92.0329 52.4528C92.441 52.4498 92.8455 52.5288 93.2227 52.6853C93.5999 52.8418 93.9421 53.0725 94.2291 53.364L95.2743 54.4149C95.8674 55.0297 96.1991 55.8523 96.1991 56.7086C96.1991 57.5648 95.8674 58.3874 95.2743 59.0022L90.5159 63.7662C89.9172 64.3483 89.1168 64.6737 88.2838 64.6737C87.4507 64.6737 86.6503 64.3483 86.0517 63.7662L84.6398 62.3653C84.3451 62.0685 84.1116 61.7161 83.953 61.3283C83.7943 60.9406 83.7136 60.5252 83.7154 60.1059C83.7161 59.4779 83.5935 58.8559 83.3546 58.2756C83.1157 57.6952 82.7653 57.168 82.3233 56.7239C81.8813 56.2798 81.3564 55.9277 80.7788 55.6877C80.2012 55.4477 79.5821 55.3245 78.9571 55.3252H78.3294C77.4873 55.3253 76.6792 54.9916 76.0807 54.3965C75.9415 54.2566 75.8181 54.1168 75.6982 53.9937L73.7129 52.0149ZM95.7102 94.3417L94.3683 95.6899C93.8424 96.1877 93.1472 96.465 92.4246 96.465C91.7021 96.465 91.0068 96.1877 90.4809 95.6899L78.4669 83.6245C78.4247 83.5757 78.4014 83.5133 78.4014 83.4486C78.4014 83.384 78.4247 83.3216 78.4669 83.2728L80.9073 80.8217L83.3478 78.3697C83.3702 78.346 83.3974 78.3274 83.4276 78.3153C83.4578 78.3031 83.4903 78.2977 83.5229 78.2994C83.558 78.2961 83.5934 78.3007 83.6266 78.3129C83.6597 78.325 83.6898 78.3445 83.7145 78.3697L95.7066 90.4184C96.2213 90.9401 96.5104 91.6446 96.5113 92.3791C96.5121 93.1137 96.2245 93.8189 95.711 94.3417H95.7102Z" fill="white"/>
</g>
<defs>
<clipPath id="clip0_3534_5458">
<rect width="70" height="70" fill="white" transform="translate(30 30)"/>
</clipPath>
</defs>
</svg>
