<svg width="43" height="42" viewBox="0 0 43 42" fill="none" xmlns="http://www.w3.org/2000/svg">
<path d="M21.8944 2.87891C11.6981 2.87891 3.41443 10.9654 3.41443 20.9189C3.41443 29.9546 10.2416 37.4324 19.1333 38.7363L20.0979 38.8788V24.6634H15.7322V21.7773H20.0979V17.9448C20.0979 15.5848 20.6781 14.0304 21.6385 13.0552C22.5989 12.08 24.018 11.5882 25.9927 11.5882C27.5717 11.5882 28.186 11.6816 28.7703 11.7516V14.1139H26.7146C25.5482 14.1139 24.5912 14.7491 24.0945 15.5953C23.5978 16.4415 23.4432 17.4518 23.4432 18.4813V21.7757H28.5865L28.1288 24.6618H23.4432V38.9013L24.3964 38.7747C33.4145 37.5808 40.3744 30.0429 40.3744 20.9189C40.3744 10.9654 32.0907 2.87891 21.8944 2.87891ZM21.8944 4.51891C31.1828 4.51891 38.6944 11.8517 38.6944 20.9189C38.6944 28.8973 32.8445 35.459 25.1232 36.9361V26.3018H29.5693L30.5454 20.1357H25.1232V18.4813C25.1232 17.6306 25.2826 16.8683 25.5514 16.4105C25.8201 15.9527 26.0792 15.7539 26.7146 15.7539H30.4503V10.2669L29.7218 10.1708C29.218 10.1043 28.0678 9.9482 25.9927 9.9482C23.7221 9.9482 21.7731 10.552 20.4277 11.9181C19.0823 13.2842 18.4179 15.3184 18.4179 17.9448V20.1373H14.0522V26.3034H18.4179V36.8849C10.8207 35.3139 5.09443 28.811 5.09443 20.9189C5.09443 11.8517 12.6061 4.51891 21.8944 4.51891Z" fill="white"/>
</svg>
