<svg width="44" height="44" viewBox="0 0 44 44" fill="none" xmlns="http://www.w3.org/2000/svg">
<path d="M14.6544 2.99902C8.49036 2.99902 3.47443 8.01496 3.47443 14.179V29.659C3.47443 35.8231 8.49036 40.839 14.6544 40.839H30.1344C36.2985 40.839 41.3144 35.8231 41.3144 29.659V14.179C41.3144 8.01496 36.2985 2.99902 30.1344 2.99902H14.6544ZM14.6544 4.71902H30.1344C35.3688 4.71902 39.5944 8.94465 39.5944 14.179V29.659C39.5944 34.8934 35.3688 39.119 30.1344 39.119H14.6544C9.42005 39.119 5.19443 34.8934 5.19443 29.659V14.179C5.19443 8.94465 9.42005 4.71902 14.6544 4.71902ZM32.7144 9.87902C32.2583 9.87902 31.8208 10.0602 31.4982 10.3828C31.1756 10.7054 30.9944 11.1429 30.9944 11.599C30.9944 12.0552 31.1756 12.4927 31.4982 12.8152C31.8208 13.1378 32.2583 13.319 32.7144 13.319C33.1706 13.319 33.6081 13.1378 33.9307 12.8152C34.2532 12.4927 34.4344 12.0552 34.4344 11.599C34.4344 11.1429 34.2532 10.7054 33.9307 10.3828C33.6081 10.0602 33.1706 9.87902 32.7144 9.87902ZM22.3944 12.459C17.18 12.459 12.9344 16.7046 12.9344 21.919C12.9344 27.1335 17.18 31.379 22.3944 31.379C27.6089 31.379 31.8544 27.1335 31.8544 21.919C31.8544 16.7046 27.6089 12.459 22.3944 12.459ZM22.3944 14.179C26.6793 14.179 30.1344 17.6342 30.1344 21.919C30.1344 26.2039 26.6793 29.659 22.3944 29.659C18.1096 29.659 14.6544 26.2039 14.6544 21.919C14.6544 17.6342 18.1096 14.179 22.3944 14.179Z" fill="white"/>
</svg>
