<svg width="43" height="44" viewBox="0 0 43 44" fill="none" xmlns="http://www.w3.org/2000/svg">
<path d="M21.8944 2.13892C11.2415 2.13892 2.5744 11.0115 2.5744 21.9189C2.5744 32.8263 11.2415 41.6989 21.8944 41.6989C32.5473 41.6989 41.2144 32.8263 41.2144 21.9189C41.2144 11.0115 32.5473 2.13892 21.8944 2.13892ZM16.0144 30.5189H12.6544V17.6189H16.0144V30.5189ZM14.3344 15.0389C13.4062 15.0389 12.6544 14.2692 12.6544 13.3189C12.6544 12.3686 13.4062 11.5989 14.3344 11.5989C15.2626 11.5989 16.0144 12.3686 16.0144 13.3189C16.0144 14.2692 15.2626 15.0389 14.3344 15.0389ZM31.9744 30.5189H28.6144V26.2189V24.0689C28.6144 22.4134 27.2914 21.0589 25.6744 21.0589C24.0574 21.0589 22.7344 22.4134 22.7344 24.0689V30.5189H19.3744V17.6189H22.7344V19.1807C23.7155 18.2158 25.0461 17.6189 26.5144 17.6189C29.53 17.6189 31.9744 20.1215 31.9744 23.2089V30.5189Z" fill="white"/>
</svg>
