<svg width="100" height="101" viewBox="0 0 100 101" fill="none" xmlns="http://www.w3.org/2000/svg">
<g clip-path="url(#clip0_3323_5518)">
<path d="M43.6481 23.9817C42.1784 21.3016 43.8282 19.1907 44.8368 18.4702C49.3325 17.5192 49.88 21.0278 49.5919 22.901C48.223 24.3779 45.1178 26.6618 43.6481 23.9817Z" fill="#FD4755"/>
<path d="M46.1235 75.9774C43.5674 77.0067 39.9888 79.8579 46.1235 83.0282C48.6967 81.8788 52.2993 78.8595 46.1235 75.9774Z" fill="#FD4755"/>
<path d="M71.3136 19.1187C60.7661 30.8765 39.3254 37.202 29.9234 38.895V57.2668C47.906 59.3417 65.0096 71.3877 71.3136 77.1513V19.1187Z" fill="#25B39E"/>
<path d="M9.57312 58.5728L10.2438 36.9175L29.6951 37.8757L28.0662 59.8183L9.57312 58.5728Z" fill="#F8B84E"/>
<path d="M72.0634 39.5082C76.63 42.3574 83.0233 49.8123 72.0634 56.8379V39.5082Z" fill="#F8B84E"/>
<path d="M2.47404 40.6243L8.20167 39.7598L9.17428 55.7538L4.09506 56.5103L1.6095 54.1328L2.47404 40.6243Z" fill="#4BBFEB"/>
<path d="M16.9552 80.2853C18.4249 72.5044 15.4062 63.5707 13.7132 60.0765H21.6021L28.8427 75.7464L16.9552 80.2853Z" fill="#4BBFEB"/>
<path d="M2.47404 40.6243L8.20167 39.7598L9.17428 55.7538L4.09506 56.5103L1.6095 54.1328L2.47404 40.6243Z" stroke="black"/>
<path d="M16.9552 80.2853C18.4249 72.5044 15.4062 63.5707 13.7132 60.0765H21.6021L28.8427 75.7464L16.9552 80.2853Z" stroke="black"/>
<path d="M73.3906 38.1634L73.4375 20.7048C73.4372 20.0851 73.2527 19.4795 72.9074 18.9649C72.5621 18.4503 72.0716 18.05 71.4982 17.8149C70.9249 17.5797 70.2945 17.5204 69.6874 17.6443C69.0802 17.7683 68.5236 18.07 68.0883 18.5111C64.043 22.6423 53.6726 33.2142 30.5109 36.9345C30.0884 36.2698 29.5051 35.7224 28.815 35.3429C28.1248 34.9635 27.3501 34.7641 26.5625 34.7634H12.5C11.4833 34.7652 10.4947 35.097 9.68283 35.709C8.871 36.3211 8.27989 37.1802 7.99843 38.1572C7.06483 38.1244 6.12342 38.0869 5.15936 38.0322C4.51748 37.9981 3.87544 38.096 3.2729 38.3199C2.67036 38.5437 2.12014 38.8888 1.65624 39.3337C1.14371 39.8195 0.734972 40.4041 0.454733 41.0523C0.174494 41.7004 0.0285666 42.3987 0.0257683 43.1048L-1.29068e-05 52.7416C-0.00187204 53.458 0.143487 54.1672 0.42705 54.8252C0.710613 55.4832 1.12633 56.0759 1.64842 56.5666C2.10957 57.0085 2.65785 57.3494 3.25822 57.5675C3.85859 57.7855 4.49785 57.876 5.13514 57.833C6.08436 57.7666 7.01171 57.7173 7.93202 57.6736C8.16083 58.6762 8.71284 59.5758 9.50309 60.2339C10.2933 60.892 11.278 61.2722 12.3055 61.3158C12.9172 62.5689 13.5086 63.8158 14.0125 64.9119C16.5203 69.7994 15.2773 76.2353 14.6265 78.7759C14.5182 79.1825 14.5227 79.6109 14.6397 80.0151C14.7567 80.4193 14.9818 80.7839 15.2906 81.0697C15.5861 81.3305 15.9453 81.5086 16.3319 81.5857C16.7184 81.6628 17.1184 81.6362 17.4914 81.5087L28.1531 77.6947C28.4499 77.5862 28.7214 77.4183 28.9509 77.2012C29.1805 76.9841 29.3634 76.7224 29.4883 76.4322C29.6182 76.1342 29.686 75.8128 29.6873 75.4877C29.6886 75.1626 29.6236 74.8406 29.4961 74.5416L25.0234 64.2033C24.5833 63.2674 24.198 62.3066 23.8695 61.3259H26.5625C27.4185 61.325 28.2579 61.0898 28.9897 60.6458C29.7215 60.2018 30.3179 59.566 30.714 58.8072C53.3508 62.5337 63.8172 73.3228 67.9195 77.5587C68.3543 78.0032 68.9107 78.3091 69.5189 78.4381C70.127 78.5671 70.7598 78.5134 71.3375 78.2837C71.9132 78.0536 72.4069 77.6563 72.7547 77.1431C73.1026 76.6298 73.2887 76.0241 73.289 75.404L73.3359 57.9509C75.2269 57.0827 76.8299 55.6913 77.9555 53.9412C79.0811 52.1911 79.6823 50.1555 79.688 48.0747C79.6938 45.9939 79.1038 43.9549 77.9879 42.1986C76.872 40.4423 75.2768 39.0421 73.3906 38.1634ZM7.81249 54.5478C6.85936 54.5947 5.89764 54.647 4.91717 54.7158C4.70854 54.7257 4.50011 54.6924 4.30492 54.6181C4.10973 54.5437 3.93199 54.4299 3.7828 54.2837C3.57533 54.0859 3.41008 53.8481 3.29702 53.5847C3.18397 53.3212 3.12544 53.0376 3.12499 52.7509L3.15155 43.1134C3.15384 42.8319 3.21238 42.5537 3.32374 42.2952C3.43509 42.0367 3.59702 41.803 3.79999 41.608C3.95513 41.4546 4.14024 41.3348 4.34375 41.2562C4.54727 41.1775 4.76482 41.1417 4.9828 41.1509C5.93514 41.2056 6.87577 41.2431 7.81249 41.2759V54.5478ZM26.3047 75.0369L18.007 78.0056C18.7101 74.5369 19.3523 68.4744 16.8226 63.5462C16.6375 63.1431 16.2633 62.3353 15.7836 61.3259H20.5844C21.0084 62.7524 21.5407 64.1445 22.1765 65.49L26.3047 75.0369ZM28.125 56.6384C28.1246 57.0527 27.9598 57.4499 27.6669 57.7428C27.3739 58.0358 26.9768 58.2005 26.5625 58.2009H12.5C12.0857 58.2005 11.6885 58.0358 11.3956 57.7428C11.1027 57.4499 10.9379 57.0527 10.9375 56.6384V39.4509C10.9379 39.0367 11.1027 38.6395 11.3956 38.3465C11.6885 38.0536 12.0857 37.8888 12.5 37.8884H26.5625C26.9768 37.8888 27.3739 38.0536 27.6669 38.3465C27.9598 38.6395 28.1246 39.0367 28.125 39.4509V56.6384ZM70.3125 75.3884L70.164 75.3845C65.8609 70.9416 54.8648 59.6072 31.25 55.722V39.9462C38.0856 38.8759 44.7544 36.927 51.0906 34.1478C58.3238 30.9802 64.8571 26.4098 70.3125 20.7009V75.3884ZM73.3461 54.3447L73.3805 41.7681C74.3697 42.4926 75.1736 43.4407 75.7267 44.5351C76.2798 45.6294 76.5664 46.839 76.563 48.0651C76.5597 49.2913 76.2665 50.4993 75.7074 51.5906C75.1484 52.6819 74.3393 53.6256 73.3461 54.3447ZM83.5937 43.3572C83.799 43.3574 84.0022 43.3171 84.1918 43.2385C84.3814 43.16 84.5536 43.0447 84.6984 42.8994L89.3859 38.2119C89.6705 37.9172 89.828 37.5225 89.8245 37.1128C89.8209 36.7031 89.6566 36.3112 89.3669 36.0215C89.0772 35.7318 88.6853 35.5675 88.2756 35.5639C87.8659 35.5604 87.4712 35.7179 87.1766 36.0025L82.4891 40.69C82.2706 40.9085 82.1218 41.1869 82.0616 41.4899C82.0013 41.793 82.0323 42.1071 82.1505 42.3926C82.2687 42.678 82.4689 42.922 82.7258 43.0937C82.9827 43.2654 83.2848 43.3571 83.5937 43.3572ZM82.4891 55.3994L87.1766 60.0869C87.4712 60.3715 87.8659 60.529 88.2756 60.5254C88.6853 60.5219 89.0772 60.3575 89.3669 60.0678C89.6566 59.7781 89.8209 59.3862 89.8245 58.9766C89.828 58.5669 89.6705 58.1722 89.3859 57.8775L84.6984 53.19C84.4037 52.9054 84.009 52.7479 83.5994 52.7514C83.1897 52.755 82.7978 52.9193 82.5081 53.209C82.2184 53.4987 82.0541 53.8906 82.0505 54.3003C82.0469 54.71 82.2044 55.1047 82.4891 55.3994Z" fill="black"/>
<path d="M21.0938 48.0479C21.0955 47.1849 20.3974 46.4839 19.5345 46.4822C18.6715 46.4804 17.9705 47.1785 17.9688 48.0415C17.967 48.9044 18.6651 49.6054 19.5281 49.6072C20.391 49.6089 21.092 48.9108 21.0938 48.0479Z" fill="black"/>
<path d="M59.3766 13.6697C59.7042 13.67 60.0235 13.5669 60.2891 13.3751L70.0656 6.32983C70.0494 6.69702 70.1634 7.05813 70.3875 7.34944C70.6116 7.64075 70.9314 7.84354 71.2905 7.92203C71.6496 8.00051 72.0248 7.94965 72.35 7.7784C72.6752 7.60716 72.9295 7.32654 73.068 6.98608L74.8844 2.54233C74.9882 2.28876 75.0235 2.01236 74.9867 1.74084C74.95 1.46933 74.8425 1.21225 74.675 0.995396C74.5075 0.778543 74.286 0.609538 74.0326 0.505335C73.7792 0.401132 73.5028 0.365394 73.2313 0.401706L68.5273 1.02905C68.1986 1.07245 67.8923 1.21945 67.6527 1.44873C67.4132 1.67801 67.2529 1.97765 67.1952 2.30416C67.1375 2.63068 67.1853 2.96709 67.3317 3.26461C67.4781 3.56212 67.7155 3.80525 68.0094 3.95874L58.4609 10.8392C58.1926 11.0324 57.9925 11.3057 57.8894 11.6199C57.7863 11.934 57.7855 12.2727 57.8871 12.5873C57.9887 12.902 58.1875 13.1762 58.4549 13.3707C58.7222 13.5652 59.0444 13.6699 59.375 13.6697H59.3766ZM87.5016 11.3259C87.8265 11.3258 88.1434 11.2242 88.4078 11.0353L95.6531 5.8603C95.7844 6.11027 95.9815 6.31957 96.2232 6.46554C96.4649 6.61151 96.7419 6.68858 97.0242 6.68842C97.3264 6.68833 97.6221 6.60071 97.8755 6.43613C98.129 6.27156 98.3293 6.03709 98.4523 5.76108L99.8649 2.58608C99.9774 2.33344 100.021 2.05546 99.9908 1.78053C99.9608 1.5056 99.8583 1.24357 99.6938 1.0212C99.5294 0.798838 99.3089 0.624106 99.0548 0.514855C98.8007 0.405604 98.5222 0.36575 98.2477 0.399362L94.5891 0.8478C94.3031 0.881778 94.0321 0.994413 93.8063 1.17318C93.5805 1.35195 93.4087 1.58984 93.31 1.86041C93.2113 2.13098 93.1896 2.42362 93.2473 2.70579C93.305 2.98796 93.4398 3.2486 93.6367 3.45874L86.5914 8.49155C86.3217 8.684 86.1202 8.95721 86.0159 9.2717C85.9116 9.58619 85.91 9.92568 86.0113 10.2411C86.1126 10.5566 86.3116 10.8317 86.5795 11.0267C86.8473 11.2217 87.1702 11.3265 87.5016 11.3259Z" fill="black"/>
<path d="M83.9594 13.5502C83.9611 12.6873 83.263 11.9863 82.4001 11.9845C81.5371 11.9828 80.8361 12.6809 80.8344 13.5438C80.8326 14.4068 81.5307 15.1078 82.3937 15.1095C83.2566 15.1113 83.9576 14.4132 83.9594 13.5502Z" fill="black"/>
<path d="M55.4688 16.0166C55.4705 15.1537 54.7724 14.4527 53.9095 14.4509C53.0465 14.4492 52.3455 15.1473 52.3438 16.0102C52.342 16.8732 53.0401 17.5742 53.9031 17.5759C54.766 17.5777 55.467 16.8796 55.4688 16.0166Z" fill="black"/>
<path d="M73.068 93.79C72.9295 93.4495 72.6752 93.1689 72.35 92.9977C72.0248 92.8264 71.6496 92.7755 71.2905 92.854C70.9314 92.9325 70.6116 93.1353 70.3875 93.4266C70.1634 93.7179 70.0494 94.079 70.0656 94.4462L60.2891 87.4017C59.9528 87.1593 59.534 87.0604 59.1247 87.1267C58.7155 87.1931 58.3494 87.4193 58.107 87.7556C57.8646 88.0919 57.7657 88.5107 57.8321 88.9199C57.8984 89.3291 58.1246 89.6952 58.4609 89.9376L68.0094 96.8173C67.7154 96.9708 67.4781 97.2139 67.3317 97.5115C67.1853 97.809 67.1375 98.1454 67.1952 98.4719C67.2529 98.7984 67.4132 99.098 67.6527 99.3273C67.8923 99.5566 68.1986 99.7036 68.5273 99.747L73.2305 100.374C73.5021 100.411 73.7785 100.375 74.0321 100.271C74.2856 100.167 74.5072 99.9979 74.6748 99.7811C74.8424 99.5642 74.9499 99.307 74.9867 99.0354C75.0235 98.7639 74.9882 98.4874 74.8844 98.2337L73.068 93.79ZM98.4523 95.0158C98.3347 94.7479 98.1439 94.5186 97.9018 94.3544C97.6598 94.1901 97.3763 94.0974 97.0839 94.0871C96.7915 94.0767 96.5022 94.149 96.2491 94.2958C95.996 94.4425 95.7894 94.6577 95.6531 94.9165L88.4086 89.7415C88.0713 89.5006 87.652 89.4035 87.2431 89.4716C86.8342 89.5397 86.4691 89.7675 86.2281 90.1048C85.9871 90.4421 85.89 90.8614 85.9582 91.2703C86.0263 91.6792 86.2541 92.0443 86.5914 92.2853L93.6383 97.3173C93.4124 97.5564 93.2687 97.8613 93.2281 98.1876C93.2031 98.3913 93.2185 98.598 93.2733 98.7958C93.3282 98.9935 93.4214 99.1786 93.5478 99.3403C93.6742 99.502 93.8312 99.6372 94.0099 99.7382C94.1885 99.8393 94.3853 99.9041 94.5891 99.929L98.2477 100.377C98.3106 100.384 98.374 100.388 98.4375 100.388C98.6979 100.388 98.9541 100.323 99.1829 100.199C99.4117 100.074 99.6058 99.8949 99.7475 99.6764C99.8893 99.458 99.9742 99.2076 99.9945 98.948C100.015 98.6884 99.97 98.4278 99.8641 98.19L98.4523 95.0158Z" fill="black"/>
<path d="M82.2203 88.9603C83.0833 88.9603 83.7828 88.2607 83.7828 87.3978C83.7828 86.5349 83.0833 85.8353 82.2203 85.8353C81.3574 85.8353 80.6578 86.5349 80.6578 87.3978C80.6578 88.2607 81.3574 88.9603 82.2203 88.9603Z" fill="black"/>
<path d="M53.7344 86.4361C54.5973 86.4361 55.2969 85.7365 55.2969 84.8736C55.2969 84.0106 54.5973 83.3111 53.7344 83.3111C52.8714 83.3111 52.1719 84.0106 52.1719 84.8736C52.1719 85.7365 52.8714 86.4361 53.7344 86.4361Z" fill="black"/>
<path d="M93.75 48.0447C93.75 47.6303 93.5854 47.2329 93.2924 46.9398C92.9993 46.6468 92.6019 46.4822 92.1875 46.4822H84.375C83.9606 46.4822 83.5632 46.6468 83.2701 46.9398C82.9771 47.2329 82.8125 47.6303 82.8125 48.0447C82.8125 48.4591 82.9771 48.8565 83.2701 49.1495C83.5632 49.4426 83.9606 49.6072 84.375 49.6072H92.1875C92.6019 49.6072 92.9993 49.4426 93.2924 49.1495C93.5854 48.8565 93.75 48.4591 93.75 48.0447ZM46.0938 26.1697C47.0209 26.1697 47.9271 25.8948 48.698 25.3797C49.4688 24.8646 50.0696 24.1325 50.4244 23.276C50.7792 22.4195 50.8721 21.477 50.6912 20.5677C50.5103 19.6584 50.0639 18.8232 49.4083 18.1676C48.7528 17.5121 47.9175 17.0656 47.0082 16.8847C46.099 16.7039 45.1565 16.7967 44.2999 17.1515C43.4434 17.5063 42.7113 18.1071 42.1962 18.8779C41.6812 19.6488 41.4063 20.5551 41.4063 21.4822C41.4077 22.7249 41.902 23.9164 42.7808 24.7951C43.6596 25.6739 44.851 26.1682 46.0938 26.1697ZM46.0938 19.9197C46.4028 19.9197 46.7049 20.0113 46.9618 20.183C47.2188 20.3547 47.4191 20.5987 47.5373 20.8842C47.6556 21.1697 47.6865 21.4839 47.6262 21.787C47.5659 22.0901 47.4171 22.3685 47.1986 22.587C46.9801 22.8056 46.7017 22.9544 46.3986 23.0147C46.0955 23.0749 45.7813 23.044 45.4958 22.9257C45.2103 22.8075 44.9663 22.6072 44.7946 22.3503C44.6229 22.0933 44.5313 21.7912 44.5313 21.4822C44.5317 21.0679 44.6964 20.6707 44.9894 20.3778C45.2823 20.0848 45.6795 19.9201 46.0938 19.9197ZM46.0938 74.6072C45.1667 74.6072 44.2604 74.8821 43.4895 75.3972C42.7187 75.9122 42.1179 76.6443 41.7631 77.5009C41.4083 78.3574 41.3155 79.2999 41.4963 80.2092C41.6772 81.1184 42.1236 81.9537 42.7792 82.6092C43.4347 83.2648 44.27 83.7112 45.1793 83.8921C46.0886 84.073 47.0311 83.9801 47.8876 83.6254C48.7441 83.2706 49.4762 82.6698 49.9913 81.8989C50.5063 81.1281 50.7813 80.2218 50.7813 79.2947C50.7798 78.0519 50.2855 76.8605 49.4067 75.9817C48.528 75.103 47.3365 74.6086 46.0938 74.6072ZM46.0938 80.8572C45.7847 80.8572 45.4826 80.7655 45.2257 80.5938C44.9687 80.4222 44.7685 80.1781 44.6502 79.8926C44.5319 79.6071 44.501 79.2929 44.5613 78.9898C44.6216 78.6868 44.7704 78.4083 44.9889 78.1898C45.2074 77.9713 45.4858 77.8225 45.7889 77.7622C46.092 77.7019 46.4062 77.7329 46.6917 77.8511C46.9772 77.9694 47.2212 78.1697 47.3929 78.4266C47.5646 78.6836 47.6563 78.9856 47.6563 79.2947C47.6558 79.709 47.4911 80.1061 47.1981 80.3991C46.9052 80.692 46.508 80.8568 46.0938 80.8572Z" fill="black"/>
</g>
<defs>
<clipPath id="clip0_3323_5518">
<rect width="100" height="100" fill="white" transform="translate(0 0.388428)"/>
</clipPath>
</defs>
</svg>
