<svg width="100" height="101" viewBox="0 0 100 101" fill="none" xmlns="http://www.w3.org/2000/svg">
<g clip-path="url(#clip0_3323_5537)">
<path d="M15.625 47.5305H25V2.21777H15.625V47.5305Z" fill="#F8B84E"/>
<path d="M11.1625 0.652222C9.86111 0.658798 8.61494 1.1788 7.695 2.09933C6.77506 3.01985 6.25575 4.26645 6.25 5.56784V45.7459H9.375V5.56784C9.36945 5.33144 9.41188 5.09636 9.4997 4.87681C9.58753 4.65726 9.71894 4.45765 9.886 4.2903C10.0531 4.12295 10.2523 3.99132 10.4717 3.90311C10.6911 3.8149 10.9261 3.77209 11.1625 3.77722H51.3375C52.3531 3.77722 53.125 4.54909 53.125 5.56784V45.7459H56.25V5.56784C56.2443 4.26645 55.7249 3.01985 54.805 2.09933C53.8851 1.1788 52.6389 0.658798 51.3375 0.652222H11.1625Z" fill="black"/>
<path d="M42.1875 24.093C42.1875 20.6412 39.3893 17.843 35.9375 17.843C32.4858 17.843 29.6875 20.6412 29.6875 24.093C29.6875 27.5447 32.4858 30.343 35.9375 30.343C39.3893 30.343 42.1875 27.5447 42.1875 24.093Z" fill="#F8B84E" stroke="black"/>
<path d="M46.875 38.1555V47.5305H50V38.1555H46.875ZM46.875 25.6555V35.0305H50V25.6555H46.875Z" fill="black"/>
<path d="M31.25 38.152V47.527H40.625V38.152H31.25ZM34.375 41.277H37.5V44.402H34.375V41.277Z" fill="black"/>
<path d="M42.1875 14.718C42.1875 11.2662 39.3893 8.46777 35.9375 8.46777C32.4858 8.46777 29.6875 11.2662 29.6875 14.718C29.6875 18.1697 32.4858 20.968 35.9375 20.968C39.3893 20.968 42.1875 18.1697 42.1875 14.718Z" fill="#25B39E" stroke="black"/>
<path d="M53.95 28.827L54.7438 28.8709L56.2688 29.1021L56.725 29.2176L57.5 26.1895L56.975 26.0553L56.9032 26.024H56.825L55.1219 25.7615H54.9625L54.1063 25.7177L53.95 28.827ZM59.3938 30.1023L60.5719 30.671L61.8344 31.4336L61.8657 31.4645H61.8719L61.9282 31.5023L62.275 30.927L63.7407 28.9678L63.6719 28.9117L63.6094 28.8678L63.5469 28.8304L62.1282 27.971L62.0657 27.9271L61.9938 27.8958L60.75 27.2927L59.3938 30.1023ZM64.5563 32.9053L64.125 33.302L64.1594 33.3459L64.1844 33.3772L64.2282 33.4211L65.1344 34.4209H65.15L65.9688 35.5146L68.4688 33.6396L67.6407 32.5334L67.5969 32.4708L67.5438 32.4147L66.4375 31.1959L66.3813 31.1395L66.3282 31.0895L66.2594 31.0239L64.5563 32.9053ZM67.3532 37.9678L67.5094 38.3054L68.0344 39.7332L68.2688 40.624L71.2938 39.8492L71.05 38.9054L71.0313 38.8303L71.0063 38.7586L70.4282 37.177L70.4032 37.1083L70.3657 37.0366L70.1657 36.6147L67.3532 37.9678ZM68.6969 43.3957L68.75 44.4833L71.875 44.3273L71.8188 43.2366L68.6969 43.3957Z" fill="black"/>
<path d="M53.125 19.402V22.527C56.0743 22.527 58.9931 23.1234 61.7059 24.2803C64.4188 25.4371 66.8697 27.1309 68.9113 29.2592C70.953 31.3875 72.5431 33.9065 73.5863 36.6651C74.6294 39.4237 75.1039 42.3648 74.9813 45.3115L78.1 45.4396C78.2408 42.0722 77.699 38.7111 76.5073 35.5584C75.3156 32.4058 73.4986 29.5267 71.1655 27.0944C68.8325 24.6621 66.0316 22.7267 62.9313 21.4048C59.831 20.0828 56.4954 19.4016 53.125 19.402ZM54.4313 16.3522L55.975 16.4239L57.3813 16.6364L57.8563 13.5461L56.3969 13.321H56.2375L54.5907 13.2398L54.4313 16.3522ZM60.2844 17.2364L61.4125 17.5241H61.4438L63.1125 18.1272L64.1844 15.1895L62.4875 14.5772L62.4157 14.5459L62.3438 14.5146L61.0657 14.1835L60.2844 17.2364ZM65.825 19.3364L66.5594 19.6897L66.5969 19.7209L68.4032 20.8272L70.0282 18.1584L68.0844 16.9805L68.0219 16.9366L67.9594 16.9053L67.1813 16.5334L65.825 19.3364ZM70.8125 22.5553L70.9594 22.6552L70.9907 22.6865L73.0282 24.5366L75.1344 22.2242L73.0594 20.3427L73.0063 20.2867L72.9438 20.2428L72.6875 20.049L70.8125 22.5553ZM74.9219 26.6397L76.4594 28.6992L76.6657 29.046L79.3407 27.4209L79.0782 26.996L79.0407 26.9303L78.9907 26.8739L77.4219 24.7678L74.9219 26.6397ZM78.15 31.6148L79.0344 33.4458L79.3594 34.3301L82.2938 33.2551L81.9469 32.3114L81.9219 32.2396L81.8844 32.171L80.9688 30.2583L78.15 31.6148ZM80.2688 37.1492L80.675 38.7429L80.8782 40.0552L83.9657 39.5803L83.7532 38.1864L83.7407 38.1086L83.7219 38.0303L83.2938 36.3771L80.2688 37.1492ZM81.175 43.0051L81.2438 44.4085L81.2188 44.9521L84.3438 45.1085L84.375 44.4833L82.8125 44.4085L84.375 44.3303L84.2969 42.8491L81.175 43.0051Z" fill="black"/>
<path d="M20.9156 56.9055C20.2177 58.8409 19.1017 60.5987 17.6471 62.0538C16.1926 63.5089 14.4352 64.6254 12.5 65.3241V79.7395C14.4351 80.4374 16.1925 81.5537 17.6471 83.0083C19.1017 84.4629 20.2177 86.2204 20.9156 88.1555H79.0844C79.7827 86.221 80.8989 84.4638 82.3535 83.0098C83.808 81.5558 85.5652 80.4405 87.5 79.7429V65.3272C85.5648 64.6285 83.8074 63.5119 82.3529 62.0568C80.8983 60.6017 79.7823 58.8439 79.0844 56.9085H20.9156V56.9055Z" fill="#F8B84E"/>
<path d="M1.5625 45.968V99.093H98.4375V45.968H1.5625ZM15.625 50.6555H84.375V52.218C84.375 56.5523 87.8531 60.0305 92.1875 60.0305H93.75V85.0305H92.1875C91.1606 85.0272 90.1432 85.2269 89.1939 85.6183C88.2445 86.0097 87.382 86.5851 86.6559 87.3113C85.9297 88.0374 85.3544 88.8998 84.963 89.8492C84.5715 90.7985 84.3717 91.8161 84.375 92.843V94.4055H15.625V92.843C15.625 88.5117 12.1469 85.0305 7.8125 85.0305H6.25V60.0305H7.8125C12.1469 60.0305 15.625 56.5523 15.625 52.218V50.6555Z" fill="#4BBFEB"/>
<path d="M15.625 50.652V52.2145C15.625 56.5489 12.1469 60.027 7.8125 60.027H6.25V85.027H7.8125C12.1469 85.027 15.625 88.5083 15.625 92.8395V94.402H84.375V92.8395C84.375 88.5083 87.8531 85.027 92.1875 85.027H93.75V60.027H92.1875C91.1606 60.0303 90.1432 59.8306 89.1939 59.4392C88.2445 59.0477 87.382 58.4723 86.6559 57.7462C85.9297 57.0201 85.3544 56.1577 84.963 55.2083C84.5715 54.259 84.3717 53.2414 84.375 52.2145V50.652H15.625ZM18.4312 53.777H81.5687C81.8994 56.0618 82.9599 58.1784 84.592 59.8111C86.2241 61.4438 88.3404 62.5051 90.625 62.8366V82.2209C88.341 82.5527 86.2253 83.6136 84.5934 85.2456C82.9614 86.8776 81.9005 88.993 81.5687 91.277H18.4312C18.0995 88.993 17.0386 86.8776 15.4066 85.2456C13.7747 83.6136 11.659 82.5527 9.375 82.2209V62.8366C11.6596 62.5051 13.7759 61.4438 15.408 59.8111C17.0401 58.1784 18.1006 56.0618 18.4312 53.777Z" fill="black"/>
<path d="M18.75 69.402C17.0438 69.402 15.625 70.8208 15.625 72.527C15.625 74.2364 17.0438 75.652 18.75 75.652C20.4563 75.652 21.875 74.2364 21.875 72.527C21.875 70.8208 20.4563 69.402 18.75 69.402ZM81.25 69.402C79.5438 69.402 78.125 70.8208 78.125 72.527C78.125 74.2364 79.5438 75.652 81.25 75.652C82.9563 75.652 84.375 74.2364 84.375 72.527C84.375 70.8208 82.9563 69.402 81.25 69.402Z" fill="black"/>
<path fill-rule="evenodd" clip-rule="evenodd" d="M42.2719 60.0304V60.0616H42.2V63.1866H45.4094C48.325 63.1866 49.8 64.5648 50.3281 66.2804H42.2719V69.4054H50.3281C49.8 71.121 48.3281 72.5054 45.4094 72.5054H44.4094L44.3969 72.4929L44.3844 72.5054H42.1969V75.6304H43.1219L52.6531 85.0304L54.8531 82.8116L47.3687 75.4241C50.7594 74.7116 52.9344 72.1898 53.5344 69.4054H57.8V66.2804H53.5344C53.2906 65.1554 52.7656 64.0929 52.0344 63.1554H57.8V60.0304H42.2719Z" fill="black"/>
<path d="M0 44.402V100.652H100V44.402H0ZM3.125 47.527H96.875V97.527H3.125V47.527Z" fill="black"/>
</g>
<defs>
<clipPath id="clip0_3323_5537">
<rect width="100" height="100" fill="white" transform="translate(0 0.655273)"/>
</clipPath>
</defs>
</svg>
