<svg width="130" height="130" viewBox="0 0 130 130" fill="none" xmlns="http://www.w3.org/2000/svg">
<circle cx="65" cy="65" r="65" fill="#25B39E"/>
<g clip-path="url(#clip0_3323_5715)">
<path fill-rule="evenodd" clip-rule="evenodd" d="M85.2344 84.7583C91.5899 84.7583 96.9666 88.9485 98.7528 94.7169C99.0668 95.7304 98.8961 96.7387 98.2667 97.5926C97.6372 98.4466 96.7245 98.9077 95.6635 98.9077H74.8055C73.7445 98.9077 72.8318 98.4466 72.2023 97.5926C71.5727 96.7387 71.4023 95.7303 71.716 94.7169C73.5023 88.9485 78.8791 84.7583 85.2344 84.7583Z" fill="#25B39E"/>
<path fill-rule="evenodd" clip-rule="evenodd" d="M85.2345 84.7583C91.5899 84.7583 96.9668 88.9485 98.753 94.7169C99.0669 95.7303 98.8963 96.7387 98.2667 97.5926C97.6372 98.4466 96.7245 98.9077 95.6636 98.9077H91.8419C92.9028 98.9077 93.8155 98.4466 94.445 97.5926C95.0746 96.7387 95.2451 95.7303 94.9313 94.7169C93.3272 89.5369 88.8273 85.6302 83.3237 84.8871C83.9485 84.8026 84.5863 84.7583 85.2345 84.7583Z" fill="#25B39E"/>
<path d="M86.2027 84.1467C90.1174 83.6128 92.8581 80.0065 92.3243 76.0918C91.7905 72.177 88.1842 69.4362 84.2695 69.97C80.3548 70.5038 77.6141 74.1101 78.1479 78.0249C78.6817 81.9397 82.288 84.6805 86.2027 84.1467Z" fill="#25B39E"/>
<path fill-rule="evenodd" clip-rule="evenodd" d="M85.2345 69.9069C89.1856 69.9069 92.3885 73.1098 92.3885 77.0607C92.3885 81.0117 89.1856 84.2146 85.2345 84.2146C84.9105 84.2146 84.5917 84.1926 84.2791 84.1509C87.7783 83.6839 90.4775 80.6875 90.4775 77.0607C90.4775 73.4338 87.7783 70.4375 84.2791 69.9704C84.5958 69.9282 84.915 69.907 85.2345 69.9069Z" fill="#25B39E"/>
<path fill-rule="evenodd" clip-rule="evenodd" d="M44.7656 84.7583C51.1211 84.7583 56.4979 88.9485 58.2841 94.7169C58.598 95.7304 58.4274 96.7387 57.7979 97.5926C57.1685 98.4466 56.2557 98.9077 55.1948 98.9077H34.3366C33.2757 98.9077 32.3629 98.4466 31.7335 97.5926C31.1039 96.7387 30.9334 95.7303 31.2472 94.7169C33.0335 88.9485 38.4104 84.7583 44.7656 84.7583Z" fill="#25B39E"/>
<path fill-rule="evenodd" clip-rule="evenodd" d="M44.7656 84.7583C51.121 84.7583 56.4979 88.9485 58.2841 94.7169C58.598 95.7303 58.4274 96.7387 57.7978 97.5926C57.1684 98.4466 56.2556 98.9077 55.1947 98.9077H51.373C52.4339 98.9077 53.3467 98.4466 53.9761 97.5926C54.6057 96.7387 54.7762 95.7303 54.4624 94.7169C52.8583 89.5369 48.3585 85.6302 42.8549 84.8871C43.4798 84.8026 44.1176 84.7583 44.7656 84.7583Z" fill="#25B39E"/>
<path d="M51.0744 80.4361C52.9388 76.9527 51.6262 72.6174 48.1428 70.753C44.6593 68.8886 40.324 70.2011 38.4596 73.6846C36.5952 77.1681 37.9078 81.5034 41.3912 83.3678C44.8747 85.2321 49.21 83.9196 51.0744 80.4361Z" fill="#25B39E"/>
<path fill-rule="evenodd" clip-rule="evenodd" d="M44.7658 69.9068C48.7168 69.9068 51.9197 73.1097 51.9197 77.0606C51.9197 81.0116 48.7168 84.2145 44.7658 84.2145C44.4417 84.2145 44.1229 84.1925 43.8102 84.1508C47.3094 83.6838 50.0087 80.6875 50.0087 77.0606C50.0087 73.4337 47.3094 70.4374 43.8102 69.9704C44.127 69.9281 44.4462 69.9069 44.7658 69.9068Z" fill="#25B39E"/>
<path fill-rule="evenodd" clip-rule="evenodd" d="M97.7084 95.0406C96.0063 89.5457 90.9946 85.8531 85.2351 85.8531H85.2325C79.474 85.8531 74.4621 89.5457 72.7613 95.0406C72.5478 95.7269 72.6562 96.3667 73.0825 96.9433C73.5075 97.5219 74.0874 97.814 74.8053 97.814H95.663C96.3809 97.814 96.9607 97.5219 97.3857 96.9433C97.8123 96.3666 97.9207 95.7268 97.7084 95.0406ZM85.2327 83.665H85.2353C88.5771 83.6638 91.2952 80.9457 91.2952 77.6046C91.2952 74.2627 88.5759 71.5453 85.2347 71.5453C81.8929 71.5453 79.1748 74.2627 79.1748 77.6046C79.1747 80.9457 81.8916 83.6638 85.2327 83.665ZM99.1468 98.2422C98.3102 99.3769 97.0725 100.002 95.6631 100.002H74.8054C73.3961 100.002 72.1583 99.3769 71.3217 98.2422C70.4851 97.1078 70.2542 95.7403 70.6709 94.3935C71.6133 91.3503 73.5438 88.6188 76.1058 86.6991C77.4713 85.6762 78.9722 84.9041 80.5595 84.3939C78.4039 82.9051 76.9874 80.4181 76.9874 77.6046C76.9874 73.0572 80.6872 69.3574 85.2346 69.3574C89.7826 69.3574 93.4823 73.0572 93.4823 77.6046C93.4823 80.4181 92.0659 82.9053 89.9102 84.3939C91.512 84.91 93.0167 85.689 94.3628 86.6991C96.9254 88.6186 98.8559 91.3503 99.7976 94.3935C100.214 95.7403 99.9834 97.1078 99.1468 98.2422ZM57.2399 95.0406C55.5378 89.5457 50.5254 85.8531 44.7668 85.8531H44.7642C39.0056 85.8531 33.9938 89.5457 32.2916 95.0406C32.0794 95.7269 32.1879 96.3667 32.6141 96.9433C33.0392 97.5219 33.619 97.814 34.3369 97.814H55.1946C55.9125 97.814 56.4918 97.5219 56.9174 96.9433C57.3437 96.3666 57.4514 95.7268 57.2399 95.0406ZM44.7641 83.665H44.7667C48.1085 83.6638 50.8266 80.9457 50.8266 77.6046C50.8266 74.2627 48.1073 71.5453 44.7654 71.5453C41.4243 71.5453 38.7062 74.2627 38.7062 77.6046C38.7062 80.9457 41.4229 83.6638 44.7641 83.665ZM59.3291 94.3936C59.7458 95.7404 59.5149 97.1078 58.6783 98.2424C57.8411 99.377 56.6039 100.002 55.1946 100.002H34.3368C32.9268 100.002 31.6897 99.377 30.8531 98.2424C30.0165 97.1079 29.7856 95.7404 30.2023 94.3936C31.144 91.3504 33.0745 88.6189 35.6365 86.6992C37.0025 85.6763 38.5036 84.9042 40.0909 84.394C37.9352 82.9053 36.5188 80.4182 36.5188 77.6047C36.5188 73.0573 40.2179 69.3575 44.7653 69.3575C49.3139 69.3575 53.0137 73.0573 53.0137 77.6047C53.0137 80.4182 51.5973 82.9054 49.4409 84.394C51.0429 84.9101 52.5478 85.6891 53.894 86.6992C56.4561 88.6188 58.3867 91.3504 59.3291 94.3936ZM60.0263 40.2423H71.583C71.8701 40.2378 72.1439 40.1205 72.3453 39.9159C72.5468 39.7112 72.6597 39.4356 72.6597 39.1484C72.6597 38.8613 72.5468 38.5856 72.3453 38.381C72.1439 38.1763 71.8701 38.0591 71.583 38.0545H60.0263C59.7391 38.0591 59.4653 38.1763 59.2639 38.381C59.0624 38.5856 58.9495 38.8613 58.9495 39.1484C58.9495 39.4356 59.0624 39.7112 59.2639 39.9159C59.4653 40.1205 59.7391 40.2378 60.0263 40.2423ZM46.0025 40.2423H54.3399C54.6299 40.2423 54.9081 40.127 55.1133 39.9219C55.3184 39.7167 55.4337 39.4385 55.4337 39.1484C55.4338 39.0048 55.4055 38.8625 55.3505 38.7298C55.2956 38.597 55.215 38.4764 55.1134 38.3749C55.0118 38.2733 54.8912 38.1927 54.7585 38.1377C54.6258 38.0828 54.4835 38.0545 54.3399 38.0545H46.0025C45.8589 38.0546 45.7167 38.0829 45.584 38.1379C45.4513 38.1929 45.3308 38.2735 45.2292 38.3751C45.1277 38.4766 45.0472 38.5972 44.9923 38.7299C44.9373 38.8626 44.9091 39.0048 44.9091 39.1484C44.9093 39.7522 45.3987 40.2423 46.0025 40.2423ZM39.3789 51.7493V34.3765C39.3789 33.1704 40.3605 32.1893 41.5661 32.1893H76.0193C77.2255 32.1893 78.2073 33.1704 78.2073 34.3765V43.9202C78.2073 45.1263 77.2256 46.1081 76.0193 46.1081H44.2745C44.1074 46.1083 43.9426 46.1467 43.7926 46.2202C43.6426 46.2938 43.5113 46.4006 43.4088 46.5325L39.3789 51.7493ZM76.0193 48.2953H54.2541V57.27C54.2541 58.4761 55.2358 59.4572 56.4414 59.4572H88.1862C88.3533 59.4574 88.5182 59.4958 88.6682 59.5695C88.8182 59.6432 88.9494 59.7501 89.0518 59.8822L93.0818 65.0992V47.7258C93.0818 46.5196 92.1002 45.5385 90.8946 45.5385H80.0829C79.4373 47.1517 77.8596 48.2953 76.0193 48.2953ZM37.1916 54.9537C37.1918 55.1819 37.2632 55.4043 37.396 55.5899C37.5288 55.7755 37.7162 55.915 37.9321 55.9889C38.0457 56.0275 38.165 56.0471 38.285 56.047C38.4521 56.0471 38.617 56.0088 38.767 55.9353C38.917 55.8617 39.0482 55.7548 39.1505 55.6226L44.8118 48.2953H52.0662V57.27C52.0662 59.6824 54.0296 61.6451 56.4414 61.6451H87.6489L93.3102 68.9717C93.4123 69.1042 93.5434 69.2115 93.6935 69.2853C93.8436 69.3591 94.0086 69.3975 94.1759 69.3975C94.2933 69.3975 94.4139 69.378 94.5287 69.3381C94.7448 69.2645 94.9325 69.125 95.0654 68.9394C95.1983 68.7538 95.2698 68.5312 95.2699 68.3029V47.7258C95.2699 45.3135 93.3065 43.3513 90.8948 43.3513H80.3945V34.3765C80.3945 31.9643 78.4311 30.0014 76.0193 30.0014H41.5661C39.1544 30.0014 37.1916 31.9641 37.1916 34.3765V54.9537ZM72.4344 51.4042H60.8777C60.7341 51.4042 60.5919 51.4324 60.4592 51.4874C60.3265 51.5424 60.2059 51.623 60.1044 51.7246C60.0029 51.8262 59.9223 51.9468 59.8674 52.0795C59.8125 52.2122 59.7843 52.3544 59.7844 52.4981C59.7844 52.6417 59.8126 52.7838 59.8676 52.9165C59.9225 53.0492 60.003 53.1697 60.1046 53.2713C60.2061 53.3728 60.3266 53.4533 60.4593 53.5083C60.592 53.5632 60.7342 53.5914 60.8777 53.5914H72.4344C72.7245 53.5914 73.0027 53.4762 73.2077 53.2711C73.4128 53.066 73.5281 52.7878 73.5281 52.4978C73.5281 52.2077 73.4128 51.9296 73.2077 51.7245C73.0027 51.5194 72.7245 51.4042 72.4344 51.4042ZM77.0268 52.4982C77.0269 52.6418 77.0552 52.784 77.1102 52.9167C77.1652 53.0494 77.2458 53.1699 77.3473 53.2714C77.4489 53.373 77.5695 53.4535 77.7022 53.5084C77.8349 53.5633 77.9771 53.5916 78.1207 53.5915H86.4575C86.6012 53.5917 86.7434 53.5634 86.8762 53.5085C87.0089 53.4536 87.1295 53.3731 87.2311 53.2716C87.3327 53.17 87.4133 53.0495 87.4682 52.9168C87.5232 52.7841 87.5515 52.6418 87.5514 52.4982C87.5515 52.3545 87.5233 52.2122 87.4683 52.0795C87.4134 51.9467 87.3328 51.8261 87.2312 51.7245C87.1296 51.6229 87.009 51.5423 86.8763 51.4874C86.7435 51.4325 86.6012 51.4042 86.4575 51.4043H78.1208C77.9772 51.4042 77.8349 51.4325 77.7021 51.4874C77.5694 51.5424 77.4487 51.6229 77.3471 51.7245C77.2455 51.8261 77.165 51.9467 77.11 52.0795C77.055 52.2122 77.0268 52.3545 77.0268 52.4982Z" fill="white"/>
</g>
<defs>
<clipPath id="clip0_3323_5715">
<rect width="70" height="70" fill="white" transform="translate(30 30)"/>
</clipPath>
</defs>
</svg>
