<svg width="101" height="117" viewBox="0 0 101 117" fill="none" xmlns="http://www.w3.org/2000/svg">
<path d="M23.4781 58.8042C22.0644 59.6632 20.4448 60.1242 18.7906 60.1386V97.6386H53.1656V59.4852C52.6344 59.282 52.0906 59.0914 51.6031 58.8008C50.1897 59.6609 48.5701 60.1233 46.9156 60.1386C45.2611 60.1233 43.6416 59.6609 42.2281 58.8008C40.8147 59.6609 39.1951 60.1233 37.5406 60.1386C35.8861 60.1233 34.2666 59.6609 32.8531 58.8008C31.4397 59.6609 29.8201 60.1233 28.1656 60.1386C26.5111 60.1233 24.8916 59.6609 23.4781 58.8008V58.8042Z" fill="#25B39E"/>
<path d="M12.5438 50.7011V102.226H15.6688V50.7011H12.5438ZM87.5438 50.7011V103.889H58.5281V107.014H89.1063C89.5207 107.014 89.9181 106.849 90.2111 106.556C90.5041 106.263 90.6688 105.866 90.6688 105.451V50.7011H87.5438ZM15.4406 19.5134C15.1246 19.5142 14.8163 19.6107 14.5563 19.7904C14.2963 19.97 14.0969 20.2244 13.9844 20.5197L3.27188 48.6446L6.18751 49.7604L16.5219 22.6354H86.6875L97.0219 49.7604L99.9375 48.6446L89.2281 20.5197L87.7625 22.6354V19.5104H15.4406V19.5134Z" fill="black"/>
<path d="M4.73126 100.76C4.31686 100.76 3.91943 100.925 3.62641 101.218C3.33338 101.511 3.16876 101.908 3.16876 102.323V111.698C3.169 112.027 3.2734 112.348 3.46704 112.615C3.66067 112.881 3.93362 113.08 4.24689 113.182C4.29818 113.2 4.35033 113.214 4.40314 113.226C4.50271 113.248 4.60424 113.261 4.70626 113.264C4.7146 113.264 4.72293 113.264 4.73126 113.264H57.8563C57.9612 113.264 58.0659 113.253 58.1688 113.232C58.5217 113.16 58.8389 112.969 59.0667 112.69C59.2945 112.41 59.4188 112.061 59.4188 111.701V102.326L59.3938 102.357C59.3971 102.152 59.3599 101.948 59.2844 101.757C59.209 101.567 59.0966 101.392 58.9539 101.245C58.8111 101.098 58.6407 100.98 58.4523 100.898C58.264 100.817 58.0615 100.773 57.8563 100.77H4.73126V100.76ZM6.29376 103.885H56.2938V110.135H6.29376V103.885Z" fill="black"/>
<path d="M57.875 103.885C57.6695 103.888 57.4667 103.932 57.278 104.013C57.0893 104.094 56.9185 104.212 56.7754 104.359C56.6323 104.507 56.5197 104.681 56.444 104.872C56.3683 105.063 56.3311 105.267 56.3344 105.473L56.3125 105.442V111.692C56.3125 112.106 56.4771 112.503 56.7701 112.796C57.0632 113.089 57.4606 113.254 57.875 113.254H90.6V110.129H59.4375V107.004H90.6V103.879H57.875V103.885Z" fill="black"/>
<path d="M89.1062 100.76C88.6918 100.76 88.2944 100.925 88.0014 101.218C87.7084 101.511 87.5437 101.908 87.5437 102.323V111.698C87.544 112.027 87.6484 112.348 87.842 112.615C88.0356 112.881 88.3086 113.08 88.6219 113.182C88.6731 113.2 88.7253 113.214 88.7781 113.226C88.8777 113.248 88.9792 113.261 89.0812 113.264C89.0896 113.264 89.0979 113.264 89.1062 113.264H98.4812C98.5862 113.264 98.6909 113.253 98.7937 113.232C99.1467 113.16 99.4639 112.969 99.6916 112.69C99.9194 112.41 100.044 112.061 100.044 111.701V102.326L100.019 102.357C100.022 102.152 99.9849 101.948 99.9094 101.757C99.8339 101.567 99.7216 101.392 99.5788 101.245C99.4361 101.098 99.2656 100.98 99.0773 100.898C98.889 100.817 98.6864 100.773 98.4812 100.77H89.1062V100.76ZM90.6687 103.885H96.9187V110.135H90.6687V103.885ZM14.05 49.1351C13.6361 49.1417 13.2418 49.3123 12.9535 49.6093C12.6653 49.9063 12.5066 50.3059 12.5125 50.7198V102.126C12.5125 102.54 12.6771 102.938 12.9701 103.231C13.2632 103.524 13.6606 103.688 14.075 103.688C14.4894 103.688 14.8868 103.524 15.1798 103.231C15.4729 102.938 15.6375 102.54 15.6375 102.126V50.7198C15.64 50.5109 15.6006 50.3036 15.5217 50.1102C15.4427 49.9168 15.3258 49.7411 15.1778 49.5937C15.0298 49.4462 14.8537 49.3301 14.66 49.2519C14.4663 49.1737 14.2589 49.1352 14.05 49.1386V49.1351ZM57.8625 53.6601C57.657 53.663 57.4541 53.7066 57.2654 53.7879C57.0768 53.8693 56.906 53.9872 56.7629 54.1347C56.6198 54.2821 56.5072 54.4563 56.4315 54.6474C56.3558 54.8384 56.3186 55.0423 56.3219 55.2478V105.448C56.3219 105.862 56.4865 106.26 56.7795 106.553C57.0725 106.846 57.47 107.01 57.8844 107.01C58.2988 107.01 58.6962 106.846 58.9892 106.553C59.2822 106.26 59.4469 105.862 59.4469 105.448V55.2478C59.4502 55.0387 59.4116 54.831 59.3332 54.6371C59.2548 54.4431 59.1383 54.2671 58.9905 54.119C58.8427 53.971 58.6668 53.8541 58.473 53.7753C58.2792 53.6966 58.0716 53.6572 57.8625 53.6601ZM64.1062 72.6352C63.6918 72.6352 63.2944 72.7999 63.0014 73.093C62.7084 73.386 62.5437 73.7833 62.5437 74.1977V105.448C62.5437 105.862 62.7084 106.26 63.0014 106.553C63.2944 106.846 63.6918 107.01 64.1062 107.01H82.8562C83.2706 107.01 83.6681 106.846 83.9611 106.553C84.2541 106.26 84.4187 105.862 84.4187 105.448V72.5604L82.8562 72.623L64.1062 72.6352ZM65.6687 75.7602H81.2937V103.885H65.6687V75.7602Z" fill="black"/>
<path d="M4.70626 47.6476C4.29294 47.6542 3.89907 47.8243 3.6109 48.1206C3.32273 48.417 3.16374 48.8155 3.16876 49.2288V50.76C3.16876 54.1975 5.98125 57.01 9.41876 57.01C12.8531 57.01 15.6688 54.1975 15.6688 50.76C15.6688 50.3456 15.5041 49.9483 15.2111 49.6553C14.9181 49.3623 14.5207 49.1975 14.1063 49.1975C13.6919 49.1975 13.2944 49.3623 13.0014 49.6553C12.7084 49.9483 12.5438 50.3456 12.5438 50.76C12.5438 52.5194 11.175 53.885 9.41876 53.885C7.65938 53.885 6.29375 52.5194 6.29375 50.76V49.2288C6.29629 49.0199 6.25691 48.8126 6.17795 48.6192C6.09899 48.4258 5.98205 48.2505 5.83404 48.1031C5.68604 47.9557 5.50997 47.8391 5.31626 47.7609C5.12255 47.6827 4.91513 47.6442 4.70626 47.6476Z" fill="black"/>
<path d="M14.0813 49.1788C13.6679 49.1854 13.2741 49.3555 12.9859 49.6518C12.6977 49.9482 12.5387 50.3467 12.5438 50.76C12.5438 54.1975 15.3563 57.01 18.7938 57.01C22.2281 57.01 25.0438 54.1975 25.0438 50.76C25.0438 50.3456 24.8791 49.9483 24.5861 49.6553C24.2931 49.3623 23.8957 49.1975 23.4813 49.1975C23.0669 49.1975 22.6694 49.3623 22.3764 49.6553C22.0834 49.9483 21.9188 50.3456 21.9188 50.76C21.9188 52.5194 20.55 53.885 18.7938 53.885C17.0344 53.885 15.6688 52.5194 15.6688 50.76C15.6713 50.5511 15.6319 50.3438 15.553 50.1504C15.474 49.957 15.357 49.7817 15.209 49.6343C15.061 49.4869 14.885 49.3703 14.6913 49.2921C14.4976 49.2139 14.2901 49.1755 14.0813 49.1788Z" fill="black"/>
<path d="M23.4563 49.1788C23.0429 49.1854 22.6491 49.3555 22.3609 49.6518C22.0727 49.9482 21.9137 50.3467 21.9188 50.76C21.9188 54.1975 24.7313 57.01 28.1688 57.01C31.6031 57.01 34.4188 54.1975 34.4188 50.76C34.4188 50.3456 34.2541 49.9483 33.9611 49.6553C33.6681 49.3623 33.2707 49.1975 32.8563 49.1975C32.4419 49.1975 32.0444 49.3623 31.7514 49.6553C31.4584 49.9483 31.2938 50.3456 31.2938 50.76C31.2938 52.5194 29.925 53.885 28.1688 53.885C26.4094 53.885 25.0438 52.5194 25.0438 50.76C25.0463 50.5511 25.0069 50.3438 24.928 50.1504C24.849 49.957 24.732 49.7817 24.584 49.6343C24.436 49.4869 24.26 49.3703 24.0663 49.2921C23.8726 49.2139 23.6651 49.1755 23.4563 49.1788Z" fill="black"/>
<path d="M32.8313 49.1788C32.4179 49.1854 32.0241 49.3555 31.7359 49.6518C31.4477 49.9482 31.2887 50.3467 31.2938 50.76C31.2938 54.1975 34.1063 57.01 37.5438 57.01C40.9781 57.01 43.7938 54.1975 43.7938 50.76C43.7938 50.3456 43.6291 49.9483 43.3361 49.6553C43.0431 49.3623 42.6457 49.1975 42.2313 49.1975C41.8169 49.1975 41.4194 49.3623 41.1264 49.6553C40.8334 49.9483 40.6688 50.3456 40.6688 50.76C40.6688 52.5194 39.3 53.885 37.5438 53.885C35.7844 53.885 34.4188 52.5194 34.4188 50.76C34.4213 50.5511 34.3819 50.3438 34.3029 50.1504C34.224 49.957 34.107 49.7817 33.959 49.6343C33.811 49.4869 33.635 49.3703 33.4413 49.2921C33.2476 49.2139 33.0401 49.1755 32.8313 49.1788Z" fill="black"/>
<path d="M42.2063 49.1788C41.7929 49.1854 41.3991 49.3555 41.1109 49.6518C40.8227 49.9482 40.6637 50.3467 40.6688 50.76C40.6688 54.1975 43.4813 57.01 46.9188 57.01C50.3531 57.01 53.1688 54.1975 53.1688 50.76C53.1688 50.3456 53.0041 49.9483 52.7111 49.6553C52.4181 49.3623 52.0207 49.1975 51.6063 49.1975C51.1919 49.1975 50.7944 49.3623 50.5014 49.6553C50.2084 49.9483 50.0438 50.3456 50.0438 50.76C50.0438 52.5194 48.675 53.885 46.9188 53.885C45.1594 53.885 43.7938 52.5194 43.7938 50.76C43.7963 50.5511 43.7569 50.3438 43.6779 50.1504C43.599 49.957 43.482 49.7817 43.334 49.6343C43.186 49.4869 43.01 49.3703 42.8163 49.2921C42.6226 49.2139 42.4151 49.1755 42.2063 49.1788Z" fill="black"/>
<path d="M51.5813 49.1788C51.1679 49.1854 50.7741 49.3555 50.4859 49.6518C50.1977 49.9482 50.0387 50.3467 50.0438 50.76C50.0438 54.1975 52.8563 57.01 56.2938 57.01C59.7281 57.01 62.5438 54.1975 62.5438 50.76C62.5438 50.3456 62.3791 49.9483 62.0861 49.6553C61.7931 49.3623 61.3957 49.1975 60.9813 49.1975C60.5669 49.1975 60.1694 49.3623 59.8764 49.6553C59.5834 49.9483 59.4188 50.3456 59.4188 50.76C59.4188 52.5194 58.05 53.885 56.2938 53.885C54.5344 53.885 53.1688 52.5194 53.1688 50.76C53.1713 50.5511 53.1319 50.3438 53.0529 50.1504C52.974 49.957 52.857 49.7817 52.709 49.6343C52.561 49.4869 52.385 49.3703 52.1913 49.2921C51.9976 49.2139 51.7901 49.1755 51.5813 49.1788Z" fill="black"/>
<path d="M60.9563 49.1788C60.5429 49.1854 60.1491 49.3555 59.8609 49.6518C59.5727 49.9482 59.4137 50.3467 59.4188 50.76C59.4188 54.1975 62.2313 57.01 65.6688 57.01C69.1031 57.01 71.9188 54.1975 71.9188 50.76C71.9188 50.3456 71.7541 49.9483 71.4611 49.6553C71.1681 49.3623 70.7707 49.1975 70.3563 49.1975C69.9419 49.1975 69.5444 49.3623 69.2514 49.6553C68.9584 49.9483 68.7938 50.3456 68.7938 50.76C68.7938 52.5194 67.425 53.885 65.6688 53.885C63.9094 53.885 62.5438 52.5194 62.5438 50.76C62.5463 50.5511 62.5069 50.3438 62.4279 50.1504C62.349 49.957 62.232 49.7817 62.084 49.6343C61.936 49.4869 61.76 49.3703 61.5663 49.2921C61.3726 49.2139 61.1651 49.1755 60.9563 49.1788Z" fill="black"/>
<path d="M70.3313 49.1788C69.9179 49.1854 69.5241 49.3555 69.2359 49.6518C68.9477 49.9482 68.7887 50.3467 68.7938 50.76C68.7938 54.1975 71.6063 57.01 75.0438 57.01C78.4781 57.01 81.2938 54.1975 81.2938 50.76C81.2938 50.3456 81.1291 49.9483 80.8361 49.6553C80.5431 49.3623 80.1457 49.1975 79.7313 49.1975C79.3169 49.1975 78.9194 49.3623 78.6264 49.6553C78.3334 49.9483 78.1688 50.3456 78.1688 50.76C78.1688 52.5194 76.8 53.885 75.0438 53.885C73.2844 53.885 71.9188 52.5194 71.9188 50.76C71.9213 50.5511 71.8819 50.3438 71.8029 50.1504C71.724 49.957 71.607 49.7817 71.459 49.6343C71.311 49.4869 71.135 49.3703 70.9413 49.2921C70.7476 49.2139 70.5401 49.1755 70.3313 49.1788Z" fill="black"/>
<path d="M79.7063 49.1788C79.2929 49.1854 78.8991 49.3555 78.6109 49.6518C78.3227 49.9482 78.1637 50.3467 78.1688 50.76C78.1688 54.1975 80.9813 57.01 84.4188 57.01C87.8531 57.01 90.6688 54.1975 90.6688 50.76C90.6688 50.3456 90.5041 49.9483 90.2111 49.6553C89.9181 49.3623 89.5207 49.1975 89.1063 49.1975C88.6919 49.1975 88.2944 49.3623 88.0014 49.6553C87.7084 49.9483 87.5438 50.3456 87.5438 50.76C87.5438 52.5194 86.175 53.885 84.4188 53.885C82.6594 53.885 81.2938 52.5194 81.2938 50.76C81.2963 50.5511 81.2569 50.3438 81.1779 50.1504C81.099 49.957 80.982 49.7817 80.834 49.6343C80.686 49.4869 80.51 49.3703 80.3163 49.2921C80.1226 49.2139 79.9151 49.1755 79.7063 49.1788Z" fill="black"/>
<path d="M98.4563 47.4851C98.0424 47.4917 97.648 47.6622 97.3598 47.9593C97.0715 48.2563 96.9129 48.6555 96.9188 49.0693V50.76C96.9188 52.5194 95.55 53.885 93.7938 53.885C92.0344 53.885 90.6688 52.5194 90.6688 50.76C90.6688 50.3456 90.5041 49.9483 90.2111 49.6553C89.9181 49.3623 89.5207 49.1975 89.1063 49.1975C88.6919 49.1975 88.2944 49.3623 88.0014 49.6553C87.7084 49.9483 87.5438 50.3456 87.5438 50.76C87.5438 54.1975 90.3563 57.01 93.7938 57.01C97.2281 57.01 100.044 54.1975 100.044 50.76V49.0728C100.047 48.8634 100.008 48.6554 99.9298 48.4613C99.8512 48.2671 99.7344 48.0906 99.5863 47.9425C99.4382 47.7944 99.2619 47.6777 99.0677 47.5992C98.8736 47.5206 98.6657 47.4817 98.4563 47.4851Z" fill="black"/>
<path fill-rule="evenodd" clip-rule="evenodd" d="M68.7937 85.1352V91.3852H71.9187V85.1352H68.7937ZM26.7687 62.5667L20.5187 75.0667L23.3156 76.4636L29.5656 63.9636L26.7687 62.5667ZM33.0187 68.8167L25.2062 84.4417L28.0031 85.8386L35.8156 70.2136L33.0187 68.8167Z" fill="black"/>
<path d="M15.4406 19.5104C15.1242 19.5114 14.8156 19.6084 14.5556 19.7887C14.2956 19.9689 14.0964 20.2238 13.9844 20.5197L3.27188 48.6446L6.18751 49.7604L16.5219 22.6354H86.6875L97.0219 49.7604L99.9375 48.6446L89.2281 20.5197L89.2094 20.5508C89.1015 20.2523 88.9053 19.9939 88.6468 19.8096C88.3883 19.6254 88.0799 19.5243 87.7625 19.5197H15.4375L15.4406 19.5104Z" fill="black"/>
<path d="M4.70626 47.6476C4.29294 47.6542 3.89907 47.8243 3.6109 48.1206C3.32273 48.417 3.16374 48.8155 3.16876 49.2288V50.76C3.16876 54.1975 5.98125 57.01 9.41876 57.01C12.8531 57.01 15.6688 54.1975 15.6688 50.76C15.6688 50.3456 15.5041 49.9483 15.2111 49.6553C14.9181 49.3623 14.5207 49.1975 14.1063 49.1975C13.6919 49.1975 13.2944 49.3623 13.0014 49.6553C12.7084 49.9483 12.5438 50.3456 12.5438 50.76C12.5438 52.5194 11.175 53.885 9.41876 53.885C7.65938 53.885 6.29375 52.5194 6.29375 50.76V49.2288C6.29629 49.0199 6.25691 48.8126 6.17795 48.6192C6.09899 48.4258 5.98205 48.2505 5.83404 48.1031C5.68604 47.9557 5.50997 47.8391 5.31626 47.7609C5.12255 47.6827 4.91513 47.6442 4.70626 47.6476Z" fill="black"/>
<path d="M14.0813 49.1788C13.6679 49.1854 13.2741 49.3555 12.9859 49.6518C12.6977 49.9482 12.5387 50.3467 12.5438 50.76C12.5438 54.1975 15.3563 57.01 18.7938 57.01C22.2281 57.01 25.0438 54.1975 25.0438 50.76C25.0438 50.3456 24.8791 49.9483 24.5861 49.6553C24.2931 49.3623 23.8957 49.1975 23.4813 49.1975C23.0669 49.1975 22.6694 49.3623 22.3764 49.6553C22.0834 49.9483 21.9188 50.3456 21.9188 50.76C21.9188 52.5194 20.55 53.885 18.7938 53.885C17.0344 53.885 15.6688 52.5194 15.6688 50.76C15.6713 50.5511 15.6319 50.3438 15.553 50.1504C15.474 49.957 15.357 49.7817 15.209 49.6343C15.061 49.4869 14.885 49.3703 14.6913 49.2921C14.4976 49.2139 14.2901 49.1755 14.0813 49.1788Z" fill="black"/>
<path d="M23.4563 49.1788C23.0429 49.1854 22.6491 49.3555 22.3609 49.6518C22.0727 49.9482 21.9137 50.3467 21.9188 50.76C21.9188 54.1975 24.7313 57.01 28.1688 57.01C31.6031 57.01 34.4188 54.1975 34.4188 50.76C34.4188 50.3456 34.2541 49.9483 33.9611 49.6553C33.6681 49.3623 33.2707 49.1975 32.8563 49.1975C32.4419 49.1975 32.0444 49.3623 31.7514 49.6553C31.4584 49.9483 31.2938 50.3456 31.2938 50.76C31.2938 52.5194 29.925 53.885 28.1688 53.885C26.4094 53.885 25.0438 52.5194 25.0438 50.76C25.0463 50.5511 25.0069 50.3438 24.928 50.1504C24.849 49.957 24.732 49.7817 24.584 49.6343C24.436 49.4869 24.26 49.3703 24.0663 49.2921C23.8726 49.2139 23.6651 49.1755 23.4563 49.1788Z" fill="black"/>
<path d="M32.8313 49.1788C32.4179 49.1854 32.0241 49.3555 31.7359 49.6518C31.4477 49.9482 31.2887 50.3467 31.2938 50.76C31.2938 54.1975 34.1063 57.01 37.5438 57.01C40.9781 57.01 43.7938 54.1975 43.7938 50.76C43.7938 50.3456 43.6291 49.9483 43.3361 49.6553C43.0431 49.3623 42.6457 49.1975 42.2313 49.1975C41.8169 49.1975 41.4194 49.3623 41.1264 49.6553C40.8334 49.9483 40.6688 50.3456 40.6688 50.76C40.6688 52.5194 39.3 53.885 37.5438 53.885C35.7844 53.885 34.4188 52.5194 34.4188 50.76C34.4213 50.5511 34.3819 50.3438 34.3029 50.1504C34.224 49.957 34.107 49.7817 33.959 49.6343C33.811 49.4869 33.635 49.3703 33.4413 49.2921C33.2476 49.2139 33.0401 49.1755 32.8313 49.1788Z" fill="black"/>
<path d="M42.2063 49.1788C41.7929 49.1854 41.3991 49.3555 41.1109 49.6518C40.8227 49.9482 40.6637 50.3467 40.6688 50.76C40.6688 54.1975 43.4813 57.01 46.9188 57.01C50.3531 57.01 53.1688 54.1975 53.1688 50.76C53.1688 50.3456 53.0041 49.9483 52.7111 49.6553C52.4181 49.3623 52.0207 49.1975 51.6063 49.1975C51.1919 49.1975 50.7944 49.3623 50.5014 49.6553C50.2084 49.9483 50.0438 50.3456 50.0438 50.76C50.0438 52.5194 48.675 53.885 46.9188 53.885C45.1594 53.885 43.7938 52.5194 43.7938 50.76C43.7963 50.5511 43.7569 50.3438 43.6779 50.1504C43.599 49.957 43.482 49.7817 43.334 49.6343C43.186 49.4869 43.01 49.3703 42.8163 49.2921C42.6226 49.2139 42.4151 49.1755 42.2063 49.1788Z" fill="black"/>
<path d="M51.5813 49.1788C51.1679 49.1854 50.7741 49.3555 50.4859 49.6518C50.1977 49.9482 50.0387 50.3467 50.0438 50.76C50.0438 54.1975 52.8563 57.01 56.2938 57.01C59.7281 57.01 62.5438 54.1975 62.5438 50.76C62.5438 50.3456 62.3791 49.9483 62.0861 49.6553C61.7931 49.3623 61.3957 49.1975 60.9813 49.1975C60.5669 49.1975 60.1694 49.3623 59.8764 49.6553C59.5834 49.9483 59.4188 50.3456 59.4188 50.76C59.4188 52.5194 58.05 53.885 56.2938 53.885C54.5344 53.885 53.1688 52.5194 53.1688 50.76C53.1713 50.5511 53.1319 50.3438 53.0529 50.1504C52.974 49.957 52.857 49.7817 52.709 49.6343C52.561 49.4869 52.385 49.3703 52.1913 49.2921C51.9976 49.2139 51.7901 49.1755 51.5813 49.1788Z" fill="black"/>
<path d="M60.9563 49.1788C60.5429 49.1854 60.1491 49.3555 59.8609 49.6518C59.5727 49.9482 59.4137 50.3467 59.4188 50.76C59.4188 54.1975 62.2313 57.01 65.6688 57.01C69.1031 57.01 71.9188 54.1975 71.9188 50.76C71.9188 50.3456 71.7541 49.9483 71.4611 49.6553C71.1681 49.3623 70.7707 49.1975 70.3563 49.1975C69.9419 49.1975 69.5444 49.3623 69.2514 49.6553C68.9584 49.9483 68.7938 50.3456 68.7938 50.76C68.7938 52.5194 67.425 53.885 65.6688 53.885C63.9094 53.885 62.5438 52.5194 62.5438 50.76C62.5463 50.5511 62.5069 50.3438 62.4279 50.1504C62.349 49.957 62.232 49.7817 62.084 49.6343C61.936 49.4869 61.76 49.3703 61.5663 49.2921C61.3726 49.2139 61.1651 49.1755 60.9563 49.1788Z" fill="black"/>
<path d="M70.3313 49.1788C69.9179 49.1854 69.5241 49.3555 69.2359 49.6518C68.9477 49.9482 68.7887 50.3467 68.7938 50.76C68.7938 54.1975 71.6063 57.01 75.0438 57.01C78.4781 57.01 81.2938 54.1975 81.2938 50.76C81.2938 50.3456 81.1291 49.9483 80.8361 49.6553C80.5431 49.3623 80.1457 49.1975 79.7313 49.1975C79.3169 49.1975 78.9194 49.3623 78.6264 49.6553C78.3334 49.9483 78.1688 50.3456 78.1688 50.76C78.1688 52.5194 76.8 53.885 75.0438 53.885C73.2844 53.885 71.9188 52.5194 71.9188 50.76C71.9213 50.5511 71.8819 50.3438 71.8029 50.1504C71.724 49.957 71.607 49.7817 71.459 49.6343C71.311 49.4869 71.135 49.3703 70.9413 49.2921C70.7476 49.2139 70.5401 49.1755 70.3313 49.1788Z" fill="black"/>
<path d="M79.7063 49.1788C79.2929 49.1854 78.8991 49.3555 78.6109 49.6518C78.3227 49.9482 78.1637 50.3467 78.1688 50.76C78.1688 54.1975 80.9813 57.01 84.4188 57.01C87.8531 57.01 90.6688 54.1975 90.6688 50.76C90.6688 50.3456 90.5041 49.9483 90.2111 49.6553C89.9181 49.3623 89.5207 49.1975 89.1063 49.1975C88.6919 49.1975 88.2944 49.3623 88.0014 49.6553C87.7084 49.9483 87.5438 50.3456 87.5438 50.76C87.5438 52.5194 86.175 53.885 84.4188 53.885C82.6594 53.885 81.2938 52.5194 81.2938 50.76C81.2963 50.5511 81.2569 50.3438 81.1779 50.1504C81.099 49.957 80.982 49.7817 80.834 49.6343C80.686 49.4869 80.51 49.3703 80.3163 49.2921C80.1226 49.2139 79.9151 49.1755 79.7063 49.1788Z" fill="black"/>
<path d="M98.4563 47.4851C98.0424 47.4917 97.648 47.6622 97.3598 47.9593C97.0715 48.2563 96.9129 48.6555 96.9188 49.0693V50.76C96.9188 52.5194 95.55 53.885 93.7938 53.885C92.0344 53.885 90.6688 52.5194 90.6688 50.76C90.6688 50.3456 90.5041 49.9483 90.2111 49.6553C89.9181 49.3623 89.5207 49.1975 89.1063 49.1975C88.6919 49.1975 88.2944 49.3623 88.0014 49.6553C87.7084 49.9483 87.5438 50.3456 87.5438 50.76C87.5438 54.1975 90.3563 57.01 93.7938 57.01C97.2281 57.01 100.044 54.1975 100.044 50.76V49.0728C100.047 48.8634 100.008 48.6554 99.9298 48.4613C99.8512 48.2671 99.7344 48.0906 99.5863 47.9425C99.4382 47.7944 99.2619 47.6777 99.0677 47.5992C98.8736 47.5206 98.6657 47.4817 98.4563 47.4851Z" fill="black"/>
<path d="M18.675 25.7634L10.0187 48.482C10.4242 47.7542 11.0164 47.1476 11.7343 46.7246C12.4522 46.3017 13.2699 46.078 14.1031 46.0761C15.3463 46.0761 16.5386 46.57 17.4177 47.449C18.2968 48.3281 18.7906 49.5204 18.7906 50.7636C18.7906 49.5204 19.2845 48.3281 20.1636 47.449C21.0426 46.57 22.2349 46.0761 23.4781 46.0761C24.7213 46.0761 25.9136 46.57 26.7927 47.449C27.6718 48.3281 28.1656 49.5204 28.1656 50.7636C28.1656 49.5204 28.6595 48.3281 29.5386 47.449C30.4176 46.57 31.6099 46.0761 32.8531 46.0761C34.0963 46.0761 35.2886 46.57 36.1677 47.449C37.0468 48.3281 37.5406 49.5204 37.5406 50.7636C37.5406 49.5204 38.0345 48.3281 38.9136 47.449C39.7926 46.57 40.9849 46.0761 42.2281 46.0761C43.4713 46.0761 44.6636 46.57 45.5427 47.449C46.4218 48.3281 46.9156 49.5204 46.9156 50.7636C46.9156 49.5204 47.4095 48.3281 48.2886 47.449C49.1676 46.57 50.3599 46.0761 51.6031 46.0761C52.8463 46.0761 54.0386 46.57 54.9177 47.449C55.7968 48.3281 56.2906 49.5204 56.2906 50.7636C56.2906 49.5204 56.7845 48.3281 57.6636 47.449C58.5426 46.57 59.7349 46.0761 60.9781 46.0761C62.2213 46.0761 63.4136 46.57 64.2927 47.449C65.1718 48.3281 65.6656 49.5204 65.6656 50.7636C65.6656 49.5204 66.1595 48.3281 67.0386 47.449C67.9176 46.57 69.1099 46.0761 70.3531 46.0761C71.5963 46.0761 72.7886 46.57 73.6677 47.449C74.5468 48.3281 75.0406 49.5204 75.0406 50.7636C75.0406 49.5204 75.5345 48.3281 76.4136 47.449C77.2926 46.57 78.4849 46.0761 79.7281 46.0761C80.9713 46.0761 82.1636 46.57 83.0427 47.449C83.9218 48.3281 84.4156 49.5204 84.4156 50.7636C84.4149 50.6698 84.417 50.5758 84.4219 50.4821C84.4851 49.4736 84.8726 48.5128 85.5265 47.7424C86.1804 46.972 87.0657 46.4336 88.0506 46.2073C89.0354 45.9811 90.0669 46.0789 90.9915 46.4866C91.9161 46.8943 92.6842 47.5901 93.1812 48.4698L84.5344 25.7634H18.675ZM9.52812 49.776L9.41562 50.0697V50.7041C9.4221 50.3918 9.45978 50.0808 9.52812 49.776ZM93.6844 49.776C93.7506 50.0811 93.7862 50.392 93.7906 50.7041V50.0667L93.6812 49.7729L93.6844 49.776ZM93.7906 50.7636C93.7906 50.8699 93.6781 50.932 93.675 51.0383H93.7875L93.7937 50.7636H93.7906Z" fill="#F8B84E"/>
<path fill-rule="evenodd" clip-rule="evenodd" d="M68.7906 82.0134V78.8884H78.1656V100.763H68.7906V94.5134H75.0406V82.0134H68.7906Z" fill="#25B39E"/>
<path d="M70.3531 58.8042C68.9394 59.6632 67.3198 60.1242 65.6656 60.1386C64.5594 60.1386 63.5281 59.8633 62.5406 59.4852V69.5167H84.4156V60.1417C82.7609 60.1254 81.1412 59.662 79.7281 58.8008C78.3147 59.6609 76.6951 60.1233 75.0406 60.1386C73.3861 60.1233 71.7666 59.6609 70.3531 58.8008V58.8042Z" fill="#25B39E"/>
<path d="M71.4026 19.9649C71.4026 30.899 62.5388 39.7629 51.6047 39.7629C40.6705 39.7629 31.8067 30.899 31.8067 19.9649C31.8067 9.03084 40.6705 0.166992 51.6047 0.166992C62.5388 0.166992 71.4026 9.03084 71.4026 19.9649Z" fill="#25B39E"/>
<path d="M61.5207 21.2724C61.5741 20.8455 61.6141 20.4185 61.6141 19.9649C61.6141 19.5113 61.5741 19.0843 61.5207 18.6574L64.3359 16.4559C64.5894 16.2558 64.6561 15.8956 64.496 15.602L61.8276 10.9857C61.6675 10.6921 61.3072 10.5854 61.0137 10.6921L57.6915 12.0263C56.9977 11.4927 56.2506 11.0524 55.4367 10.7188L54.9297 7.18315C54.8897 6.86294 54.6095 6.62278 54.2759 6.62278H48.9391C48.6055 6.62278 48.3254 6.86294 48.2853 7.18315L47.7783 10.7188C46.9645 11.0524 46.2173 11.506 45.5235 12.0263L42.2013 10.6921C41.8945 10.5721 41.5476 10.6921 41.3875 10.9857L38.719 15.602C38.5456 15.8956 38.6256 16.2558 38.8791 16.4559L41.6943 18.6574C41.641 19.0843 41.6009 19.5246 41.6009 19.9649C41.6009 20.4052 41.641 20.8455 41.6943 21.2724L38.8791 23.4739C38.6256 23.674 38.5589 24.0342 38.719 24.3278L41.3875 28.9441C41.5476 29.2377 41.9078 29.3444 42.2013 29.2377L45.5235 27.9035C46.2173 28.4372 46.9645 28.8774 47.7783 29.211L48.2853 32.7467C48.3254 33.0669 48.6055 33.307 48.9391 33.307H54.2759C54.6095 33.307 54.8897 33.0669 54.9297 32.7467L55.4367 29.211C56.2506 28.8774 56.9977 28.4238 57.6915 27.9035L61.0137 29.2377C61.3206 29.3578 61.6675 29.2377 61.8276 28.9441L64.496 24.3278C64.6561 24.0342 64.5894 23.674 64.3359 23.4739L61.5207 21.2724ZM51.6075 24.6346C49.0325 24.6346 46.9378 22.5399 46.9378 19.9649C46.9378 17.3899 49.0325 15.2952 51.6075 15.2952C54.1825 15.2952 56.2773 17.3899 56.2773 19.9649C56.2773 22.5399 54.1825 24.6346 51.6075 24.6346Z" fill="black"/>
</svg>
