<svg width="54" height="53" viewBox="0 0 54 53" fill="none" xmlns="http://www.w3.org/2000/svg">
<circle cx="27" cy="26.4123" r="26.1633" fill="white"/>
<path d="M10.392 21.1794V32.0998H17.6722L26.7725 41.2V12.0792L17.6722 21.1794H10.392ZM23.1324 20.87V32.4092L19.1829 28.4597H14.0321V24.8196H19.1829L23.1324 20.87ZM34.9628 26.6396C34.9628 23.4181 33.1063 20.6516 30.4126 19.3048V33.9562C33.1063 32.6276 34.9628 29.8611 34.9628 26.6396ZM30.4126 10.6777V14.427C35.6726 15.9923 39.5129 20.87 39.5129 26.6396C39.5129 32.4092 35.6726 37.2869 30.4126 38.8522V42.6015C37.711 40.9452 43.153 34.4294 43.153 26.6396C43.153 18.8498 37.711 12.334 30.4126 10.6777Z" fill="#FF0054"/>
</svg>
