<svg width="70" height="70" viewBox="0 0 70 70" fill="none" xmlns="http://www.w3.org/2000/svg">
<path d="M63.9655 9.65517H50.6897V6.03448C50.6897 4.43404 50.0539 2.89914 48.9222 1.76746C47.7905 0.635774 46.2556 0 44.6552 0H6.03448C4.43404 0 2.89914 0.635774 1.76746 1.76746C0.635774 2.89914 0 4.43404 0 6.03448V18.1034C0 18.4235 0.127155 18.7305 0.353492 18.9569C0.579829 19.1832 0.886808 19.3103 1.2069 19.3103H9.65517V63.9655C9.65517 65.566 10.2909 67.1009 11.4226 68.2325C12.5543 69.3642 14.0892 70 15.6897 70H54.3103C55.9108 70 57.4457 69.3642 58.5774 68.2325C59.7091 67.1009 60.3448 65.566 60.3448 63.9655V56.7241C60.3448 56.5 60.2824 56.2803 60.1646 56.0896C60.0467 55.899 59.8781 55.7449 59.6777 55.6447C59.4772 55.5444 59.2528 55.502 59.0295 55.5221C58.8063 55.5422 58.5931 55.6241 58.4138 55.7586L52.6931 60.0431L50.6897 58.5345V41.0345H63.9655C65.566 41.0345 67.1009 40.3987 68.2325 39.267C69.3642 38.1353 70 36.6004 70 35V15.6897C70 14.0892 69.3642 12.5543 68.2325 11.4226C67.1009 10.2909 65.566 9.65517 63.9655 9.65517V9.65517ZM67.5862 15.6897V19.3103H28.9655V15.6897C28.9655 14.7294 29.347 13.8085 30.026 13.1294C30.705 12.4504 31.6259 12.069 32.5862 12.069H63.9655C64.9258 12.069 65.8467 12.4504 66.5257 13.1294C67.2047 13.8085 67.5862 14.7294 67.5862 15.6897V15.6897ZM67.5862 25.3448H28.9655V21.7241H67.5862V25.3448ZM2.41379 16.8966V6.03448C2.41379 5.07422 2.79526 4.15328 3.47427 3.47427C4.15328 2.79526 5.07422 2.41379 6.03448 2.41379C6.99475 2.41379 7.91569 2.79526 8.5947 3.47427C9.27371 4.15328 9.65517 5.07422 9.65517 6.03448V16.8966H2.41379ZM53.4172 62.5172L57.931 59.1379V63.9655C57.931 64.9258 57.5496 65.8467 56.8706 66.5257C56.1915 67.2047 55.2706 67.5862 54.3103 67.5862H20.5172C21.3007 66.5417 21.7241 65.2712 21.7241 63.9655V59.1379L26.2259 62.5172C26.4348 62.6739 26.6889 62.7586 26.95 62.7586C27.2111 62.7586 27.4652 62.6739 27.6741 62.5172L33.3828 58.2328L39.0914 62.5172C39.3003 62.6739 39.5544 62.7586 39.8155 62.7586C40.0767 62.7586 40.3307 62.6739 40.5397 62.5172L46.2603 58.2328L51.969 62.5172C52.1779 62.6739 52.432 62.7586 52.6931 62.7586C52.9542 62.7586 53.2083 62.6739 53.4172 62.5172V62.5172ZM48.2759 56.7241L46.9724 55.7465C46.7646 55.5927 46.5129 55.5097 46.2543 55.5097C45.9957 55.5097 45.744 55.5927 45.5362 55.7465L39.8276 60.0431L34.1069 55.7586C33.898 55.6019 33.6439 55.5172 33.3828 55.5172C33.1216 55.5172 32.8675 55.6019 32.6586 55.7586L26.95 60.0431L21.2414 55.7586C21.0621 55.6241 20.8489 55.5422 20.6256 55.5221C20.4024 55.502 20.178 55.5444 19.9775 55.6447C19.777 55.7449 19.6084 55.899 19.4906 56.0896C19.3728 56.2803 19.3103 56.5 19.3103 56.7241V63.9655C19.3103 64.9258 18.9289 65.8467 18.2499 66.5257C17.5709 67.2047 16.6499 67.5862 15.6897 67.5862C14.7294 67.5862 13.8085 67.2047 13.1294 66.5257C12.4504 65.8467 12.069 64.9258 12.069 63.9655V6.03448C12.046 4.73263 11.6248 3.46905 10.8621 2.41379H44.6552C45.6154 2.41379 46.5364 2.79526 47.2154 3.47427C47.8944 4.15328 48.2759 5.07422 48.2759 6.03448V9.65517H32.5862C30.9858 9.65517 29.4509 10.2909 28.3192 11.4226C27.1875 12.5543 26.5517 14.0892 26.5517 15.6897V35C26.5517 36.6004 27.1875 38.1353 28.3192 39.267C29.4509 40.3987 30.9858 41.0345 32.5862 41.0345H48.2759V56.7241ZM63.9655 38.6207H32.5862C31.6259 38.6207 30.705 38.2392 30.026 37.5602C29.347 36.8812 28.9655 35.9603 28.9655 35V27.7586H67.5862V35C67.5862 35.9603 67.2047 36.8812 66.5257 37.5602C65.8467 38.2392 64.9258 38.6207 63.9655 38.6207V38.6207Z" fill="white"/>
</svg>
