<svg width="42" height="42" viewBox="0 0 42 42" fill="none" xmlns="http://www.w3.org/2000/svg">
<path fill-rule="evenodd" clip-rule="evenodd" d="M21.1439 41.7418C32.4215 41.7418 41.5632 32.6001 41.5632 21.3224C41.5632 10.0448 32.4215 0.903076 21.1439 0.903076C9.86624 0.903076 0.724487 10.0448 0.724487 21.3224C0.724487 32.6001 9.86624 41.7418 21.1439 41.7418ZM27.7434 24.1015L30.8961 27.2624C31.523 27.8934 31.5026 28.9368 30.8553 29.5902L29.9528 30.4724L29.9323 30.454C29.176 31.0346 28.2775 31.4013 27.3309 31.5158C27.1267 31.5382 22.3588 31.9854 16.4413 26.0556C12.1593 21.7655 10.5809 18.6026 10.9995 15.1435C11.0465 14.7107 11.1527 14.2818 11.3262 13.8306C11.51 13.3568 11.7591 12.9158 12.0572 12.536L12.0327 12.5115L12.921 11.6151C13.5724 10.9617 14.6137 10.9433 15.2386 11.5722L18.3934 14.7331C19.0202 15.362 19.0019 16.4034 18.3525 17.0568L17.8257 17.5816L16.7598 18.6495C16.8178 18.7512 16.875 18.8533 16.9313 18.9558L16.9334 18.962C17.4908 19.9686 18.2545 21.3449 19.7002 22.7926C21.1459 24.2424 22.5181 25.0061 23.5227 25.5635L23.8351 25.7391L25.4237 24.1464C26.0751 23.493 27.1145 23.4746 27.7434 24.1036V24.1015Z" fill="white"/>
</svg>
