<svg width="41" height="42" viewBox="0 0 41 42" fill="none" xmlns="http://www.w3.org/2000/svg">
<path d="M20.8518 0.852295C9.73566 0.852295 0.724487 9.86347 0.724487 20.9796C0.724487 32.0958 9.73566 41.1069 20.8518 41.1069C31.968 41.1069 40.9791 32.0958 40.9791 20.9796C40.9791 9.86347 31.968 0.852295 20.8518 0.852295ZM12.9497 14.6898H28.7161C29.5527 14.6898 29.1208 15.7633 28.6658 16.0379C28.2109 16.3105 21.9148 20.12 21.6779 20.2605C21.441 20.401 21.139 20.4701 20.8329 20.4701C20.5384 20.4762 20.2475 20.4038 19.9901 20.2605L13.0001 16.0379C12.5451 15.7633 12.1153 14.6898 12.9497 14.6898ZM29.2382 26.2211C29.2382 26.6614 28.7099 27.2694 28.3073 27.2694H13.3963C12.9938 27.2694 12.4654 26.6614 12.4654 26.2211V18.5748C12.4654 18.3819 12.4612 18.1324 12.826 18.3442L19.9901 22.5688C20.2429 22.7234 20.5372 22.7966 20.8329 22.7785C21.139 22.7785 21.3613 22.7554 21.6779 22.5688L28.8776 18.3463C29.2424 18.1324 29.2382 18.384 29.2382 18.5769V26.2211Z" fill="white"/>
</svg>
