<svg width="41" height="42" viewBox="0 0 41 42" fill="none" xmlns="http://www.w3.org/2000/svg">
<path fill-rule="evenodd" clip-rule="evenodd" d="M20.5 41.4261C31.7776 41.4261 40.9193 32.2844 40.9193 21.0068C40.9193 9.72915 31.7776 0.587402 20.5 0.587402C9.22235 0.587402 0.0805969 9.72915 0.0805969 21.0068C0.0805969 32.2844 9.22235 41.4261 20.5 41.4261ZM27.0995 23.7858L30.2522 26.9468C30.8791 27.5777 30.8587 28.6211 30.2114 29.2746L29.3089 30.1567L29.2885 30.1383C28.5321 30.7189 27.6336 31.0856 26.687 31.2001C26.4828 31.2226 21.7149 31.6698 15.7974 25.74C11.5154 21.4499 9.93702 18.2869 10.3556 14.8279C10.4026 14.395 10.5088 13.9662 10.6823 13.5149C10.8661 13.0412 11.1152 12.6001 11.4133 12.2203L11.3888 12.1958L12.2771 11.2994C12.9285 10.646 13.9698 10.6276 14.5947 11.2565L17.7495 14.4174C18.3763 15.0464 18.358 16.0877 17.7086 16.7412L17.1818 17.2659L16.1159 18.3339C16.1739 18.4355 16.2311 18.5376 16.2874 18.6402L16.2895 18.6463C16.8469 19.653 17.6106 21.0292 19.0563 22.477C20.502 23.9267 21.8742 24.6904 22.8788 25.2479L23.1912 25.4235L24.7799 23.8308C25.4312 23.1773 26.4706 23.159 27.0995 23.7879V23.7858Z" fill="white"/>
</svg>
