<svg width="38" height="39" viewBox="0 0 38 39" fill="none" xmlns="http://www.w3.org/2000/svg">
<path d="M32.4648 6.02495C28.8934 2.46673 24.1443 0.506077 19.0846 0.503906C8.65821 0.503906 0.173234 8.94885 0.16906 19.3289C0.167845 22.6469 1.03863 25.8858 2.69376 28.7408L0.0102539 38.4961L10.0376 35.8784C12.8003 37.3784 15.911 38.1689 19.0765 38.1701H19.0845H19.0846C29.5093 38.1701 37.9956 29.7237 38 19.3442C38.0017 14.3135 36.0359 9.58342 32.4648 6.02495ZM19.0846 34.9905H19.0785C16.2569 34.989 13.49 34.2349 11.0765 32.8091L10.5022 32.4701L4.55174 34.0233L6.14043 28.2493L5.76621 27.6574C4.19233 25.1659 3.36144 22.2866 3.36263 19.3301C3.36609 10.7026 10.4185 3.68364 19.0905 3.68364C23.29 3.68538 27.237 5.31508 30.2055 8.27257C33.1739 11.23 34.8074 15.1616 34.8061 19.3428C34.8025 27.9707 27.7498 34.9905 19.0846 34.9905Z" fill="#E0E0E0"/>
<path d="M1.16159 37.4136L3.72252 28.104C2.14259 25.3794 1.31174 22.2882 1.31273 19.1224C1.31688 9.21667 9.41434 1.15771 19.3636 1.15771C24.1924 1.15989 28.7246 3.03088 32.1322 6.42665C35.5405 9.82239 37.4164 14.3361 37.4144 19.1364C37.4103 29.0423 29.3123 37.102 19.3643 37.102C19.3636 37.102 19.3648 37.102 19.3643 37.102H19.3563C16.3354 37.101 13.3671 36.346 10.7307 34.9155L1.16159 37.4136Z" fill="url(#paint0_linear_3362_5747)"/>
<path fill-rule="evenodd" clip-rule="evenodd" d="M14.624 11.3368C14.2741 10.5622 13.9056 10.5467 13.5727 10.5331C13.3003 10.5215 12.9886 10.5222 12.6773 10.5222C12.3658 10.5222 11.8596 10.6388 11.4316 11.1042C11.0032 11.5697 9.79614 12.6949 9.79614 14.9833C9.79614 17.2721 11.4705 19.4835 11.7039 19.7941C11.9375 20.1042 14.936 24.9506 19.6848 26.815C23.6314 28.3645 24.4345 28.0563 25.2912 27.9788C26.1478 27.9012 28.0553 26.8538 28.4447 25.7676C28.8341 24.6816 28.8341 23.7507 28.7173 23.5562C28.6004 23.3623 28.2889 23.246 27.8217 23.0134C27.3544 22.7808 25.0575 21.6554 24.6292 21.5003C24.2009 21.3452 23.8894 21.2677 23.5779 21.7334C23.2664 22.1986 22.3715 23.246 22.099 23.5562C21.8264 23.867 21.5538 23.9058 21.0866 23.6732C20.6193 23.4399 19.1146 22.9492 17.3295 21.3646C15.9406 20.1318 15.0029 18.6092 14.7303 18.1435C14.4578 17.6783 14.7011 17.4264 14.9355 17.1945C15.1453 16.9861 15.4028 16.6515 15.6364 16.3799C15.8695 16.1082 15.9474 15.9144 16.1032 15.6043C16.2589 15.2936 16.181 15.0221 16.0642 14.7895C15.9474 14.5568 15.0394 12.2566 14.624 11.3368Z" fill="white"/>
<path d="M32.0923 5.96525C28.5618 2.44787 23.8673 0.50977 18.8657 0.507568C8.55897 0.507568 0.171396 8.85557 0.167253 19.1165C0.166038 22.3964 1.02682 25.5981 2.66295 28.4203L0.0102844 38.0636L9.92253 35.4759C12.6536 36.9587 15.7285 37.7401 18.8577 37.7413H18.8656H18.8657C29.1707 37.7413 37.5595 29.3919 37.5639 19.1315C37.5656 14.1586 35.6223 9.48288 32.0923 5.96525ZM18.8657 34.5983H18.8596C16.0704 34.5969 13.3352 33.8513 10.9495 32.4419L10.3818 32.1068L4.49963 33.6422L6.07006 27.9345L5.70014 27.3494C4.14432 24.8865 3.32297 22.0402 3.32419 19.1177C3.32758 10.5892 10.299 3.65086 18.8716 3.65086C23.0229 3.65257 26.9245 5.26357 29.859 8.1871C32.7932 11.1106 34.408 14.997 34.4067 19.1303C34.4031 27.659 27.4314 34.5983 18.8657 34.5983Z" fill="white"/>
<defs>
<linearGradient id="paint0_linear_3362_5747" x1="19.288" y1="37.4136" x2="19.288" y2="1.15778" gradientUnits="userSpaceOnUse">
<stop stop-color="#20B038"/>
<stop offset="1" stop-color="#60D66A"/>
</linearGradient>
</defs>
</svg>
